<svg id="Layer_1" data-name="Layer 1" xmlns="http://www.w3.org/2000/svg" viewBox="0 0 58.16 47.89"><defs><style>.cls-1{fill:#fff;}</style></defs><path class="cls-1" d="M21.44,20.26c0,6.15-4.57,10.13-10.68,10.13A11.8,11.8,0,0,1,0,23.79l3.66-2.13a7.38,7.38,0,0,0,6.88,4.53c3.71,0,6.42-2.36,6.42-5.84s-2.76-5.83-6.24-5.83a11.91,11.91,0,0,0-7.06,2.76L1,15.15,3.53.36h16V4.57H7.19L5.61,12.66a10.44,10.44,0,0,1,6.19-2C17.46,10.67,21.44,14.52,21.44,20.26Z"/><path class="cls-1" d="M26,27.41a3.15,3.15,0,1,1,3.12,3A3,3,0,0,1,26,27.41Z"/><path class="cls-1" d="M36.63,15.24C36.63,6.78,38.85,0,47.4,0S58.16,6.78,58.16,15.24,55.9,30.39,47.4,30.39,36.63,23.56,36.63,15.24Zm17,0c0-6-1.26-11-6.28-11s-6.34,5-6.34,11,1.32,11,6.34,11S53.68,21.21,53.68,15.24Z"/><path class="cls-1" d="M9.24,39.94l1.12,2.26a.25.25,0,0,0,.19.14L13,42.7a.25.25,0,0,1,.14.43l-1.8,1.76a.27.27,0,0,0-.08.22l.43,2.49a.25.25,0,0,1-.36.26L9.14,46.69a.25.25,0,0,0-.24,0L6.67,47.86a.25.25,0,0,1-.36-.26l.42-2.49a.23.23,0,0,0-.07-.22L4.85,43.13A.26.26,0,0,1,5,42.7l2.5-.36a.25.25,0,0,0,.19-.14l1.11-2.26A.25.25,0,0,1,9.24,39.94Z"/><path class="cls-1" d="M18.81,39.94l1.11,2.26a.25.25,0,0,0,.19.14l2.5.36a.25.25,0,0,1,.14.43l-1.81,1.76a.26.26,0,0,0-.07.22l.43,2.49a.25.25,0,0,1-.37.26L18.7,46.69a.24.24,0,0,0-.23,0l-2.23,1.17a.25.25,0,0,1-.37-.26l.43-2.49a.27.27,0,0,0-.08-.22l-1.8-1.76a.25.25,0,0,1,.14-.43l2.49-.36a.22.22,0,0,0,.19-.14l1.12-2.26A.25.25,0,0,1,18.81,39.94Z"/><path class="cls-1" d="M28.37,39.94l1.12,2.26a.25.25,0,0,0,.19.14l2.49.36a.25.25,0,0,1,.14.43l-1.8,1.76a.23.23,0,0,0-.07.22l.42,2.49a.25.25,0,0,1-.36.26l-2.23-1.17a.25.25,0,0,0-.24,0L25.8,47.86a.25.25,0,0,1-.36-.26l.42-2.49a.23.23,0,0,0-.07-.22L24,43.13a.25.25,0,0,1,.13-.43l2.5-.36a.25.25,0,0,0,.19-.14l1.11-2.26A.25.25,0,0,1,28.37,39.94Z"/><path class="cls-1" d="M37.94,39.94l1.12,2.26a.22.22,0,0,0,.18.14l2.5.36a.25.25,0,0,1,.14.43l-1.81,1.76a.26.26,0,0,0-.07.22l.43,2.49a.25.25,0,0,1-.37.26l-2.23-1.17a.24.24,0,0,0-.23,0l-2.23,1.17A.25.25,0,0,1,35,47.6l.43-2.49a.29.29,0,0,0-.07-.22l-1.81-1.76a.25.25,0,0,1,.14-.43l2.49-.36a.22.22,0,0,0,.19-.14l1.12-2.26A.25.25,0,0,1,37.94,39.94Z"/><path class="cls-1" d="M47.51,39.94l1.11,2.26a.25.25,0,0,0,.19.14l2.49.36a.25.25,0,0,1,.14.43l-1.8,1.76a.23.23,0,0,0-.07.22L50,47.6a.25.25,0,0,1-.36.26L47.4,46.69a.25.25,0,0,0-.24,0l-2.23,1.17a.25.25,0,0,1-.36-.26L45,45.11a.23.23,0,0,0-.07-.22l-1.8-1.76a.25.25,0,0,1,.14-.43l2.49-.36a.25.25,0,0,0,.19-.14l1.11-2.26A.26.26,0,0,1,47.51,39.94Z"/></svg>