<?xml version="1.0" encoding="iso-8859-1"?><svg id="Layer_1" data-name="Layer 1" xmlns="http://www.w3.org/2000/svg" viewBox="0 0 31.32 32.86"><defs><style>.cls-1{fill:#e5f0f4;}.cls-2{fill:none;stroke:#037098;stroke-miterlimit:10;stroke-width:0.75px;}.cls-3{fill:#fff;}.cls-4{fill:#de026d;}</style></defs><path class="cls-1" d="M30.85,10.25l-14-8.82a1,1,0,0,0-1.07,0l-14,8.82a1,1,0,0,0-.47.85V31.86a1,1,0,0,0,1,1h28a1,1,0,0,0,1-1V11.1A1,1,0,0,0,30.85,10.25Z"/><path class="cls-2" d="M29.87,9.35,15.89.53a1,1,0,0,0-1.07,0L.84,9.35a1,1,0,0,0-.46.85V31a1,1,0,0,0,1,1h28a1,1,0,0,0,1-1V10.2A1,1,0,0,0,29.87,9.35Z"/><path class="cls-3" d="M19.7,13.85a3.05,3.05,0,0,0-4.33,0l-.3.3-.31-.31a3,3,0,0,0-2.17-.9,3,3,0,0,0-2.16.9,3.05,3.05,0,0,0,0,4.33l4.41,4.41a.31.31,0,0,0,.44,0l4.42-4.4a3.05,3.05,0,0,0,0-4.33Z"/><path class="cls-4" d="M20,14.1a3.08,3.08,0,0,0-4.34,0l-.3.3-.31-.31a3.06,3.06,0,1,0-4.33,4.33l4.41,4.41a.31.31,0,0,0,.22.09.33.33,0,0,0,.23-.09L20,18.44a3.08,3.08,0,0,0,0-4.34Z"/></svg>