<?xml version="1.0" encoding="iso-8859-1"?><svg id="Layer_1" data-name="Layer 1" xmlns="http://www.w3.org/2000/svg" viewBox="0 0 112.65 112.65"><defs><style>.cls-1{fill:#f9f8fa;}.cls-2{fill:#e5f0f4;}.cls-3{fill:#fff;stroke-width:0.5px;}.cls-3,.cls-7{stroke:#d5d5d5;}.cls-3,.cls-4{stroke-miterlimit:10;}.cls-4,.cls-7{fill:none;}.cls-4{stroke:#037098;stroke-width:0.75px;}.cls-5{fill:#de026d;}.cls-6{fill:#d5d5d5;}.cls-7{stroke-linecap:round;stroke-linejoin:round;stroke-width:0.25px;stroke-dasharray:0.3 0.7;}</style></defs><path class="cls-1" d="M0,56.32A56.33,56.33,0,0,1,56.32,0C74.2,0,72.79,21.66,83.11,34.65c7.63,9.62,29.54,8.45,29.54,21.67A56.33,56.33,0,1,1,0,56.32Z"/><rect class="cls-2" x="11.13" y="47.34" width="90.51" height="20.09" rx="1"/><rect class="cls-3" x="14.26" y="24.7" width="80.88" height="18.1" rx="1"/><rect class="cls-4" x="9.45" y="45.87" width="90.51" height="20.09" rx="1"/><rect class="cls-3" x="14.26" y="69.03" width="80.88" height="18.1" rx="1"/><path class="cls-5" d="M44.67,54.63l-2.78-.42-1.24-2.65a.27.27,0,0,0-.08-.1h0l-.09,0h-.12l-.08,0h0a.27.27,0,0,0-.08.1l-1.24,2.65-2.77.42a.28.28,0,0,0-.23.19.3.3,0,0,0,.06.3l2,2.06-.48,2.92a.28.28,0,0,0,.12.28.34.34,0,0,0,.17,0l.14,0L40.39,59l2.48,1.37a.32.32,0,0,0,.14,0,.33.33,0,0,0,.16,0,.28.28,0,0,0,.12-.28l-.47-2.92,2-2.06a.32.32,0,0,0,.07-.3A.32.32,0,0,0,44.67,54.63Z"/><path class="cls-5" d="M61.67,54.23a.43.43,0,0,0-.35-.3L57,53.27l-1.92-4.09A.42.42,0,0,0,55,49h0l-.13,0h-.19l-.13,0h0a.42.42,0,0,0-.13.16l-1.92,4.09-4.29.66a.46.46,0,0,0-.36.3.44.44,0,0,0,.11.45L51,57.87l-.73,4.52a.44.44,0,0,0,.44.51.38.38,0,0,0,.21,0l3.83-2.12,3.83,2.12a.44.44,0,0,0,.22,0,.44.44,0,0,0,.44-.51l-.74-4.52,3.12-3.19A.42.42,0,0,0,61.67,54.23Z"/><path class="cls-5" d="M73.29,54.63l-2.77-.42-1.24-2.65a.22.22,0,0,0-.09-.1h0l-.08,0H69l-.08,0h0a.22.22,0,0,0-.09.1l-1.24,2.65-2.77.42a.29.29,0,0,0-.16.49l2,2.06-.47,2.92a.27.27,0,0,0,.11.28.34.34,0,0,0,.17,0,.32.32,0,0,0,.14,0L69,59l2.47,1.37a.32.32,0,0,0,.14,0,.34.34,0,0,0,.17,0,.27.27,0,0,0,.11-.28l-.47-2.92,2-2.06a.29.29,0,0,0-.16-.49Z"/><path class="cls-5" d="M85.83,54.82a.28.28,0,0,0-.23-.19l-2.77-.42-1.24-2.65a.22.22,0,0,0-.09-.1h0l-.08,0h-.13l-.08,0h0a.2.2,0,0,0-.08.1l-1.25,2.65-2.77.42a.32.32,0,0,0-.23.19.3.3,0,0,0,.07.3l2,2.06-.47,2.92a.28.28,0,0,0,.12.28.3.3,0,0,0,.16,0,.32.32,0,0,0,.14,0L81.33,59,83.8,60.4a.35.35,0,0,0,.14,0,.34.34,0,0,0,.17,0,.3.3,0,0,0,.12-.28l-.48-2.92,2-2.06A.28.28,0,0,0,85.83,54.82Z"/><path class="cls-5" d="M32.35,54.63l-2.77-.42-1.24-2.65a.27.27,0,0,0-.08-.1h0l-.08,0H28l-.09,0h0a.27.27,0,0,0-.08.1l-1.24,2.65-2.77.42a.28.28,0,0,0-.23.19.3.3,0,0,0,.06.3l2,2.06-.48,2.92a.28.28,0,0,0,.12.28.33.33,0,0,0,.16,0,.32.32,0,0,0,.14,0L28.08,59l2.48,1.37a.31.31,0,0,0,.13,0,.34.34,0,0,0,.17,0A.28.28,0,0,0,31,60.1l-.48-2.92,2-2.06a.3.3,0,0,0,.06-.3A.28.28,0,0,0,32.35,54.63Z"/><path class="cls-6" d="M48.85,32.72l-2-.31-.91-1.93s0-.05-.06-.07h0l-.06,0h-.1l-.06,0h0s-.05,0-.06.07l-.91,1.93-2,.31a.21.21,0,0,0-.16.14.2.2,0,0,0,0,.22L44,34.58l-.34,2.13a.2.2,0,0,0,.08.2.19.19,0,0,0,.12,0,.23.23,0,0,0,.11,0l1.8-1,1.8,1a.23.23,0,0,0,.11,0,.19.19,0,0,0,.12,0,.2.2,0,0,0,.08-.2l-.34-2.13L49,33.08a.2.2,0,0,0,0-.22A.21.21,0,0,0,48.85,32.72Z"/><path class="cls-6" d="M58,32.86a.22.22,0,0,0-.17-.14l-2-.31-.91-1.93a.13.13,0,0,0-.06-.07h0l-.06,0h-.09l-.06,0h0l-.06.07-.9,1.93-2,.31a.21.21,0,0,0-.12.36l1.47,1.5-.35,2.13a.21.21,0,0,0,.09.2.16.16,0,0,0,.12,0,.19.19,0,0,0,.1,0l1.8-1,1.81,1a.17.17,0,0,0,.1,0,.19.19,0,0,0,.12,0,.21.21,0,0,0,.09-.2l-.35-2.13,1.47-1.5A.25.25,0,0,0,58,32.86Z"/><path class="cls-7" d="M67,32.86a.22.22,0,0,0-.17-.14l-2-.31-.9-1.93-.06-.07h0l-.06,0h-.09l-.06,0h0a.13.13,0,0,0-.06.07l-.91,1.93-2,.31a.22.22,0,0,0-.17.14.25.25,0,0,0,0,.22l1.47,1.5-.35,2.13a.21.21,0,0,0,.09.2.19.19,0,0,0,.12,0,.17.17,0,0,0,.1,0l1.81-1,1.8,1a.19.19,0,0,0,.1,0,.16.16,0,0,0,.12,0,.21.21,0,0,0,.09-.2l-.35-2.13,1.47-1.5A.22.22,0,0,0,67,32.86Z"/><path class="cls-7" d="M75.93,32.86a.21.21,0,0,0-.16-.14l-2-.31-.91-1.93s0-.05-.06-.07h0l-.06,0h-.1l-.06,0h0s0,0-.06.07l-.91,1.93-2,.31a.21.21,0,0,0-.17.14.2.2,0,0,0,0,.22l1.46,1.5-.34,2.13a.2.2,0,0,0,.08.2.19.19,0,0,0,.12,0,.23.23,0,0,0,.11,0l1.8-1,1.8,1a.23.23,0,0,0,.11,0,.19.19,0,0,0,.12,0,.2.2,0,0,0,.08-.2l-.34-2.13,1.46-1.5A.2.2,0,0,0,75.93,32.86Z"/><path class="cls-6" d="M39.87,32.72l-2-.31L37,30.48l-.07-.07h0l-.06,0h-.09l-.06,0h0a.13.13,0,0,0-.06.07l-.91,1.93-2,.31a.22.22,0,0,0-.17.14.25.25,0,0,0,.05.22L35,34.58l-.35,2.13a.21.21,0,0,0,.09.2.19.19,0,0,0,.12,0,.17.17,0,0,0,.1,0l1.81-1,1.8,1a.19.19,0,0,0,.1,0,.17.17,0,0,0,.12,0,.21.21,0,0,0,.09-.2l-.35-2.13L40,33.08a.21.21,0,0,0-.12-.36Z"/><path class="cls-6" d="M48.85,76.82l-2-.31-.91-1.93a.24.24,0,0,0-.06-.08h0l-.06,0h-.1l-.06,0h0a.24.24,0,0,0-.06.08l-.91,1.93-2,.31a.19.19,0,0,0-.16.14.19.19,0,0,0,0,.21L44,78.68l-.34,2.12a.21.21,0,0,0,.08.21.28.28,0,0,0,.12,0,.23.23,0,0,0,.11,0l1.8-1,1.8,1a.23.23,0,0,0,.11,0,.28.28,0,0,0,.12,0,.21.21,0,0,0,.08-.21l-.34-2.12L49,77.17A.19.19,0,0,0,49,77,.19.19,0,0,0,48.85,76.82Z"/><path class="cls-6" d="M58,77a.2.2,0,0,0-.17-.14l-2-.31-.91-1.93a.16.16,0,0,0-.06-.08h0l-.06,0h-.09l-.06,0h0l-.06.08-.9,1.93-2,.31a.21.21,0,0,0-.12.35l1.47,1.51-.35,2.12a.22.22,0,0,0,.09.21.21.21,0,0,0,.12,0,.19.19,0,0,0,.1,0l1.8-1,1.81,1a.17.17,0,0,0,.1,0,.28.28,0,0,0,.12,0,.22.22,0,0,0,.09-.21l-.35-2.12,1.47-1.51A.23.23,0,0,0,58,77Z"/><path class="cls-6" d="M66.79,76.82l-2-.31-.9-1.93-.06-.08h0l-.06,0h-.09l-.06,0h0a.16.16,0,0,0-.06.08l-.91,1.93-2,.31a.2.2,0,0,0-.17.14.23.23,0,0,0,0,.21l1.47,1.51-.35,2.12a.22.22,0,0,0,.09.21.28.28,0,0,0,.12,0,.17.17,0,0,0,.1,0l1.81-1,1.8,1a.19.19,0,0,0,.1,0,.21.21,0,0,0,.12,0,.22.22,0,0,0,.09-.21l-.35-2.12,1.47-1.51a.21.21,0,0,0-.12-.35Z"/><path class="cls-7" d="M75.93,77a.19.19,0,0,0-.16-.14l-2-.31-.91-1.93a.24.24,0,0,0-.06-.08h0l-.06,0h-.1l-.06,0h0a.24.24,0,0,0-.06.08l-.91,1.93-2,.31a.19.19,0,0,0-.17.14.19.19,0,0,0,0,.21l1.46,1.51-.34,2.12a.21.21,0,0,0,.08.21.28.28,0,0,0,.12,0,.23.23,0,0,0,.11,0l1.8-1,1.8,1a.23.23,0,0,0,.11,0,.28.28,0,0,0,.12,0,.21.21,0,0,0,.08-.21l-.34-2.12,1.46-1.51A.19.19,0,0,0,75.93,77Z"/><path class="cls-6" d="M39.87,76.82l-2-.31L37,74.58a.27.27,0,0,0-.07-.08h0l-.06,0h-.09l-.06,0h0a.16.16,0,0,0-.06.08l-.91,1.93-2,.31a.2.2,0,0,0-.17.14.23.23,0,0,0,.05.21L35,78.68l-.35,2.12a.22.22,0,0,0,.09.21.28.28,0,0,0,.12,0,.17.17,0,0,0,.1,0l1.81-1,1.8,1a.19.19,0,0,0,.1,0,.25.25,0,0,0,.12,0,.22.22,0,0,0,.09-.21l-.35-2.12L40,77.17a.21.21,0,0,0-.12-.35Z"/></svg>