<?xml version="1.0" encoding="iso-8859-1"?><svg id="Layer_1" data-name="Layer 1" xmlns="http://www.w3.org/2000/svg" viewBox="0 0 112.65 112.65"><defs><style>.cls-1{fill:#f9f8fa;}.cls-2{fill:#e5f0f4;}.cls-3{fill:#fff;stroke:#d5d5d5;stroke-width:0.5px;}.cls-3,.cls-4{stroke-miterlimit:10;}.cls-4{fill:none;stroke:#037098;stroke-width:0.75px;}.cls-5{fill:#037098;}.cls-6{fill:#d5d5d5;}.cls-7{fill:#de026d;}</style></defs><path class="cls-1" d="M0,56.32A56.33,56.33,0,0,1,56.32,0C74.2,0,72.79,21.66,83.11,34.65c7.63,9.62,29.54,8.45,29.54,21.67A56.33,56.33,0,1,1,0,56.32Z"/><rect class="cls-2" x="10.3" y="47.76" width="90.51" height="20.09" rx="1"/><rect class="cls-3" x="13.43" y="25.11" width="80.88" height="18.1" rx="1"/><rect class="cls-4" x="8.61" y="46.28" width="90.51" height="20.09" rx="1"/><rect class="cls-3" x="13.43" y="69.44" width="80.88" height="18.1" rx="1"/><rect class="cls-5" x="13.78" y="52.59" width="57.96" height="2.82"/><rect class="cls-5" x="13.78" y="57.24" width="32.94" height="2.82"/><rect class="cls-6" x="18.81" y="76.72" width="32.94" height="2.82"/><path class="cls-7" d="M92.92,53.59a2,2,0,0,0-1.44-.6,2,2,0,0,0-1.45.6l-.2.2-.2-.2A2,2,0,0,0,86.14,55a2,2,0,0,0,.6,1.44l2.94,2.94a.2.2,0,0,0,.15.06.22.22,0,0,0,.15-.06l2.94-2.93a2,2,0,0,0,.6-1.45A2,2,0,0,0,92.92,53.59Z"/><path class="cls-6" d="M87.38,75.68a2,2,0,0,0-1.45-.6,2,2,0,0,0-1.44.6l-.21.2-.2-.21a2.07,2.07,0,0,0-1.45-.6,2,2,0,0,0-1.44,3.49l2.94,2.94a.22.22,0,0,0,.3,0l2.94-2.93a2.05,2.05,0,0,0,0-2.89Z"/><rect class="cls-6" x="18.81" y="32.35" width="32.94" height="2.82"/><path class="cls-6" d="M87.38,31.31a2,2,0,0,0-1.45-.6,2,2,0,0,0-1.44.6l-.21.2-.2-.2a2,2,0,1,0-2.89,2.88l2.94,2.94a.2.2,0,0,0,.3,0l2.94-2.93a2.05,2.05,0,0,0,0-2.89Z"/></svg>