<?xml version="1.0" encoding="iso-8859-1"?><svg id="Layer_1" data-name="Layer 1" xmlns="http://www.w3.org/2000/svg" viewBox="0 0 112.65 112.65"><defs><style>.cls-1{fill:#f9f8fa;}.cls-2{fill:#e5f0f4;}.cls-3{fill:#fff;stroke-width:0.5px;}.cls-3,.cls-6,.cls-8{stroke:#d5d5d5;}.cls-10,.cls-13,.cls-3,.cls-4,.cls-6,.cls-8{stroke-miterlimit:10;}.cls-10,.cls-13,.cls-4,.cls-6,.cls-8{fill:none;}.cls-10,.cls-13,.cls-4{stroke:#037098;}.cls-4{stroke-width:0.75px;}.cls-5,.cls-7{fill:#d5d5d5;}.cls-5{opacity:0.3;}.cls-10,.cls-13,.cls-6,.cls-8{stroke-width:0.25px;}.cls-13,.cls-8{stroke-dasharray:1 1;}.cls-9{fill:#cde2ea;}.cls-11{fill:#037098;}.cls-12{fill:#de026d;}</style></defs><path class="cls-1" d="M0,56.32A56.33,56.33,0,0,1,56.32,0C74.2,0,72.79,21.66,83.11,34.65c7.63,9.62,29.54,8.45,29.54,21.67A56.33,56.33,0,1,1,0,56.32Z"/><path class="cls-2" d="M75,30.28H40.41a1,1,0,0,0-1,1V82.69a1,1,0,0,0,1,1H75a1,1,0,0,0,1-1V31.28a1,1,0,0,0-1-1"/><rect class="cls-3" x="3.1" y="32.15" width="32.2" height="47.04" rx="1"/><rect class="cls-4" x="38.04" y="28.96" width="36.56" height="53.41" rx="1"/><rect class="cls-3" x="77.35" y="32.15" width="32.2" height="47.04" rx="1"/><rect class="cls-3" x="77.35" y="32.15" width="32.2" height="47.04" rx="1"/><path class="cls-5" d="M19.2,47a8.7,8.7,0,1,0,8.69,8.69A8.7,8.7,0,0,0,19.2,47Zm0,15.37a6.68,6.68,0,1,1,6.67-6.68A6.69,6.69,0,0,1,19.2,62.34Z"/><path class="cls-6" d="M19.2,47a8.7,8.7,0,1,0,8.69,8.69A8.7,8.7,0,0,0,19.2,47Z"/><path class="cls-7" d="M14.57,55h-.65a.64.64,0,0,0,0,1.27h.65a.64.64,0,0,0,0-1.27Z"/><path class="cls-7" d="M19.2,49.76h0V61.57h0a5.91,5.91,0,0,0,0-11.81Z"/><path class="cls-8" d="M19.2,62.34a6.68,6.68,0,1,1,6.67-6.68A6.69,6.69,0,0,1,19.2,62.34Z"/><path class="cls-5" d="M93.45,47a8.7,8.7,0,1,0,8.7,8.69A8.7,8.7,0,0,0,93.45,47Zm0,15.37a6.68,6.68,0,1,1,6.68-6.68A6.68,6.68,0,0,1,93.45,62.34Z"/><path class="cls-6" d="M93.45,47a8.7,8.7,0,1,0,8.7,8.69A8.7,8.7,0,0,0,93.45,47Z"/><path class="cls-7" d="M93.45,49.76h0v5.85H87.55v0a5.91,5.91,0,1,0,5.9-5.9Z"/><path class="cls-8" d="M93.45,62.34a6.68,6.68,0,1,1,6.68-6.68A6.68,6.68,0,0,1,93.45,62.34Z"/><path class="cls-9" d="M56.32,43.34A12.32,12.32,0,1,0,68.65,55.66,12.34,12.34,0,0,0,56.32,43.34Zm0,21.78a9.46,9.46,0,1,1,9.46-9.46A9.46,9.46,0,0,1,56.32,65.12Z"/><path class="cls-10" d="M56.32,43.34A12.32,12.32,0,1,0,68.65,55.66,12.34,12.34,0,0,0,56.32,43.34Z"/><path class="cls-11" d="M49.77,54.77h-.92a.9.9,0,0,0,0,1.79h.92a.9.9,0,0,0,0-1.79Z"/><path class="cls-12" d="M64.69,55.66h0a8.37,8.37,0,0,0-8.37-8.36h0v8.36Z"/><path class="cls-13" d="M56.32,65.12a9.46,9.46,0,1,1,9.46-9.46A9.46,9.46,0,0,1,56.32,65.12Z"/></svg>