<?xml version="1.0" encoding="iso-8859-1"?><svg id="Layer_1" data-name="Layer 1" xmlns="http://www.w3.org/2000/svg" viewBox="0 0 62.98 42.89"><defs><style>.cls-1,.cls-4{fill:#037098;}.cls-1{opacity:0.1;}.cls-2,.cls-3{fill:none;stroke-miterlimit:10;}.cls-2{stroke:#d5d5d5;stroke-width:0.5px;}.cls-3{stroke:#037098;stroke-width:0.75px;}.cls-5{fill:#de026d;}</style></defs><rect class="cls-1" x="1.52" y="15.63" width="61.46" height="13.64" rx="1"/><rect class="cls-2" x="3.65" y="0.25" width="54.92" height="12.29" rx="1"/><rect class="cls-3" x="0.38" y="14.63" width="61.46" height="13.64" rx="1"/><rect class="cls-2" x="3.65" y="30.35" width="54.92" height="12.29" rx="1"/><rect class="cls-4" x="3.88" y="18.91" width="39.36" height="1.91"/><rect class="cls-4" x="3.88" y="22.07" width="22.37" height="1.91"/><path class="cls-5" d="M57.63,19.59a1.34,1.34,0,0,0-1-.41,1.39,1.39,0,0,0-1,.41l-.14.13-.14-.13a1.34,1.34,0,0,0-1-.41A1.38,1.38,0,0,0,53,20.57a1.4,1.4,0,0,0,.41,1l2,2a.15.15,0,0,0,.11,0,.14.14,0,0,0,.1,0l2-2a1.4,1.4,0,0,0,0-2Z"/></svg>