<?xml version="1.0" encoding="iso-8859-1"?><svg id="Layer_1" data-name="Layer 1" xmlns="http://www.w3.org/2000/svg" viewBox="0 0 37.86 38.27"><defs><style>.cls-1{fill:#e5f0f4;}.cls-2{fill:#037098;}.cls-3{fill:#fff;}.cls-4{fill:#de026d;}</style></defs><path class="cls-1" d="M19.55,1.64A18.3,18.3,0,0,0,4.11,29.8L2.65,36.93l7.17-1.46A18.31,18.31,0,1,0,19.55,1.64Z"/><path class="cls-2" d="M18.32,1a17.32,17.32,0,1,1-9.2,32l-.34-.22-.39.08L2.7,34l1.15-5.65.09-.4-.22-.34A17.31,17.31,0,0,1,18.32,1m0-1A18.32,18.32,0,0,0,2.87,28.16L1.42,35.3l7.17-1.47A18.31,18.31,0,1,0,18.32,0Z"/><path class="cls-3" d="M14.51,11.47a3.81,3.81,0,0,0-2.79,1.19,3.9,3.9,0,0,0,.07,5.41c.85.84,1.72,1.67,2.59,2.49l5.35-5.74q-1.32-1.21-2.67-2.4A3.85,3.85,0,0,0,14.51,11.47Z"/><path class="cls-2" d="M21,14.66h0l-.24-.23,0,0,0,0Z"/><path class="cls-2" d="M14.06,21.64h0l.25.23h0l-.25-.22Z"/><path class="cls-2" d="M14.38,20.56c-.87-.82-1.74-1.65-2.59-2.49a3.9,3.9,0,0,1-.07-5.41,3.81,3.81,0,0,1,2.79-1.19,3.85,3.85,0,0,1,2.55.95q1.35,1.19,2.67,2.4l.68-.72c-.89-.82-1.78-1.64-2.69-2.43a4.86,4.86,0,0,0-6.63,7.11c.85.85,1.73,1.68,2.61,2.51Z"/><path class="cls-3" d="M23.05,18c-.85-.84-1.72-1.68-2.59-2.5l-5.35,5.75q1.32,1.21,2.67,2.4a3.87,3.87,0,0,0,5.34-.24l.43.28-.37-.34A3.88,3.88,0,0,0,23.05,18Z"/><path class="cls-4" d="M23.75,17.29c-.89-.89-1.81-1.76-2.73-2.63l-.24-.23,0,0-.34-.31h0l-.68.72-5.35,5.74-.68.73h0l.37.34h0l.25.22c.93.86,1.86,1.71,2.81,2.54a4.82,4.82,0,0,0,6.73-.31l.06-.06h0A4.82,4.82,0,0,0,23.75,17.29Zm-.57,6.06.37.34-.43-.28a3.87,3.87,0,0,1-5.34.24q-1.35-1.18-2.67-2.4l5.35-5.75c.87.82,1.74,1.66,2.59,2.5A3.88,3.88,0,0,1,23.18,23.35Z"/></svg>