<?xml version="1.0" encoding="iso-8859-1"?><svg id="Layer_1" data-name="Layer 1" xmlns="http://www.w3.org/2000/svg" viewBox="0 0 106.44 41.92"><defs><style>.cls-1{fill:#5584eb;}.cls-2{fill:#d55040;}.cls-3{fill:#efbd42;}.cls-4{fill:#5ba45c;}.cls-5{fill:#6a6c6d;}</style></defs><path class="cls-1" d="M13.29,11.93v3.58h8.57A7.67,7.67,0,0,1,19.91,20a8.81,8.81,0,0,1-6.62,2.62A9.39,9.39,0,0,1,3.9,13.12,9.39,9.39,0,0,1,13.29,3.6a9.09,9.09,0,0,1,6.45,2.56l2.52-2.52a12.35,12.35,0,0,0-9-3.64A13.28,13.28,0,0,0,0,13.1,13.28,13.28,0,0,0,13.29,26.21a12,12,0,0,0,9.15-3.67,11.84,11.84,0,0,0,3.1-8.37,11.56,11.56,0,0,0-.19-2.24Z"/><path class="cls-2" d="M36.24,9a8.34,8.34,0,0,0-8.49,8.46,8.49,8.49,0,0,0,17,0A8.34,8.34,0,0,0,36.24,9Zm0,13.59a4.89,4.89,0,0,1-4.77-5.13,4.79,4.79,0,1,1,9.55,0A4.89,4.89,0,0,1,36.24,22.6Z"/><path class="cls-1" d="M77.86,10.91h-.13A5.87,5.87,0,0,0,73.27,9a8.23,8.23,0,0,0-7.91,8.46,8.25,8.25,0,0,0,7.91,8.46A5.77,5.77,0,0,0,77.73,24h.13v1.18c0,3.23-1.73,5-4.52,5a4.68,4.68,0,0,1-4.26-3l-3.23,1.34a8.06,8.06,0,0,0,7.49,5c4.36,0,8-2.57,8-8.81V9.45H77.86ZM73.59,22.6c-2.56,0-4.51-2.19-4.51-5.13s2-5.12,4.51-5.12,4.52,2.18,4.52,5.15S76.13,22.6,73.59,22.6Z"/><path class="cls-3" d="M55.17,9a8.34,8.34,0,0,0-8.49,8.46,8.49,8.49,0,0,0,17,0A8.34,8.34,0,0,0,55.17,9Zm0,13.59a4.89,4.89,0,0,1-4.77-5.13,4.79,4.79,0,1,1,9.55,0A4.9,4.9,0,0,1,55.17,22.6Z"/><path class="cls-4" d="M84.29.35H88V25.93H84.29Z"/><path class="cls-2" d="M99.23,22.6A4.3,4.3,0,0,1,95.13,20l11.31-4.68-.38-1c-.7-1.89-2.85-5.39-7.23-5.39s-8,3.43-8,8.46a8.27,8.27,0,0,0,8.38,8.46,8.43,8.43,0,0,0,7-3.74l-2.88-1.92a4.84,4.84,0,0,1-4.17,2.33ZM99,12.19a3.36,3.36,0,0,1,3.21,1.86l-7.65,3.16C94.53,13.66,97.05,12.19,99,12.19Z"/><path class="cls-5" d="M7.54,41.76H5.81V31.94l1.59,0H8.8c2.37,0,3.57,1,3.57,3a2.86,2.86,0,0,1-.58,1.85,2.94,2.94,0,0,1-1.32,1l3.08,4h-2.1L8.74,38.09H7.54Zm0-8.21v2.92H8.66c1.07,0,1.88-.56,1.88-1.52s-.6-1.43-1.82-1.43Z"/><path class="cls-5" d="M19.43,41.13a3.62,3.62,0,0,1-2.41.79A3.46,3.46,0,0,1,14.54,41a3.55,3.55,0,0,1,0-4.76,3.19,3.19,0,0,1,2.43-1,3,3,0,0,1,2.12.83A2.77,2.77,0,0,1,20,38.23a3.06,3.06,0,0,1-.1.87H15.29a1.72,1.72,0,0,0,1.89,1.47A2.79,2.79,0,0,0,19,40ZM15.23,38h3.11a1.33,1.33,0,0,0-1.45-1.37A1.54,1.54,0,0,0,15.23,38Z"/><path class="cls-5" d="M26.94,35.45l-2.72,6.34H23l-2.91-6.34H22l1.17,2.71a8,8,0,0,1,.48,1.43,10,10,0,0,1,.46-1.46l1.09-2.68Z"/><path class="cls-5" d="M28.9,32.23a.92.92,0,0,1,.92.94.94.94,0,0,1-.92,1,1,1,0,0,1-1-1A1,1,0,0,1,28.9,32.23Zm-.85,9.53V35.45h1.62v6.31Z"/><path class="cls-5" d="M37.12,41.13a3.59,3.59,0,0,1-2.41.79A3.42,3.42,0,0,1,32.24,41a3.22,3.22,0,0,1-.93-2.41,3.28,3.28,0,0,1,.91-2.35,3.2,3.2,0,0,1,2.43-1,3,3,0,0,1,2.12.83,2.77,2.77,0,0,1,.87,2.11,2.74,2.74,0,0,1-.1.87H33a1.74,1.74,0,0,0,1.9,1.47A2.78,2.78,0,0,0,36.66,40ZM32.93,38H36a1.33,1.33,0,0,0-1.45-1.37A1.53,1.53,0,0,0,32.93,38Z"/><path class="cls-5" d="M48.1,35.45l-2,6.34H44.66l-1.34-3.51a1.92,1.92,0,0,1-.13-.42l-.08-.32a4.89,4.89,0,0,1-.23.77l-1.33,3.48H40.17l-2.05-6.34h1.73l1,3.44a7,7,0,0,1,.18.84c.11-.44.2-.72.24-.84l1.18-3.44h1.43l1.22,3.42c.07.18.14.48.24.87,0-.19.1-.5.2-.91l.93-3.38Z"/><path class="cls-5" d="M51.18,35.29a3.39,3.39,0,0,1,2.4.8L53,37.24a2.73,2.73,0,0,0-1.72-.6c-.46,0-.78.25-.78.55s.53.6,1.19.77c1,.21,2.23.64,2.22,1.94s-1,2-2.56,2a3.87,3.87,0,0,1-1.61-.35,2.32,2.32,0,0,1-1-.73l.78-1.06a2.13,2.13,0,0,0,.89.55,2.91,2.91,0,0,0,1.08.24c.7.07,1.19-.67.47-1-.88-.46-3.06-.49-3.06-2.32C48.86,36,49.83,35.29,51.18,35.29Z"/><polygon class="cls-3" points="60.95 34.71 62.09 37.01 64.63 37.38 62.79 39.18 63.22 41.71 60.95 40.52 58.67 41.71 59.11 39.18 57.26 37.38 59.81 37.01 60.95 34.71"/><polygon class="cls-3" points="69.55 34.71 70.69 37.01 73.23 37.38 71.39 39.18 71.82 41.71 69.55 40.52 67.27 41.71 67.71 39.18 65.86 37.38 68.41 37.01 69.55 34.71"/><polygon class="cls-3" points="78.15 34.71 79.29 37.01 81.83 37.38 79.99 39.18 80.42 41.71 78.15 40.52 75.87 41.71 76.31 39.18 74.47 37.38 77.01 37.01 78.15 34.71"/><polygon class="cls-3" points="86.75 34.71 87.89 37.01 90.43 37.38 88.59 39.18 89.03 41.71 86.75 40.52 84.47 41.71 84.91 39.18 83.07 37.38 85.61 37.01 86.75 34.71"/><polygon class="cls-3" points="95.35 34.71 96.49 37.01 99.03 37.38 97.19 39.18 97.63 41.71 95.35 40.52 93.07 41.71 93.51 39.18 91.67 37.38 94.21 37.01 95.35 34.71"/></svg>