<?xml version="1.0" encoding="iso-8859-1"?><svg id="Layer_1" data-name="Layer 1" xmlns="http://www.w3.org/2000/svg" viewBox="0 0 45.23 37.84"><defs><style>.cls-1{fill:#e5f0f4;}.cls-2{fill:none;stroke:#037098;stroke-miterlimit:10;stroke-width:0.75px;}.cls-3{fill:#fff;}.cls-4{fill:#de026d;}.cls-5{fill:#037098;}</style></defs><rect class="cls-1" x="8.36" y="0.97" width="29.96" height="43.77" rx="1" transform="translate(0.49 46.2) rotate(-90)"/><rect class="cls-2" x="7.28" y="-0.12" width="29.96" height="43.77" rx="1" transform="translate(0.5 44.03) rotate(-90)"/><circle class="cls-3" cx="22.26" cy="21.77" r="10.07"/><path class="cls-4" d="M24.19,26.6V23.7h2.9a.25.25,0,0,0,.25-.24V20.07a.25.25,0,0,0-.25-.24h-2.9v-2.9a.24.24,0,0,0-.24-.24H20.57a.24.24,0,0,0-.24.24v2.9h-2.9a.24.24,0,0,0-.24.24v3.39a.24.24,0,0,0,.24.24h2.9v2.9a.24.24,0,0,0,.24.24H24A.24.24,0,0,0,24.19,26.6Z"/><path class="cls-5" d="M30.32,0H14.2a1.86,1.86,0,0,0-1.86,1.86V6.73h1.94V2.58A.67.67,0,0,1,15,1.91H29.58a.66.66,0,0,1,.66.67V6.73h1.94V1.86A1.86,1.86,0,0,0,30.32,0Z"/></svg>