<?xml version="1.0" encoding="iso-8859-1"?><svg id="Layer_1" data-name="Layer 1" xmlns="http://www.w3.org/2000/svg" xmlns:xlink="http://www.w3.org/1999/xlink" viewBox="0 0 112.65 112.65"><defs><style>.cls-1,.cls-10,.cls-5{fill:none;}.cls-2{fill:#f9f8fa;}.cls-3{fill:#fff;}.cls-10,.cls-3{stroke:#d5d5d5;stroke-width:0.5px;}.cls-10,.cls-3,.cls-5{stroke-miterlimit:10;}.cls-4{fill:#e5f0f4;}.cls-5{stroke:#037098;stroke-width:0.75px;}.cls-6{fill:#037098;}.cls-7{fill:#de026d;}.cls-8{fill:#d5d5d5;opacity:0.3;}.cls-9{clip-path:url(#clip-path);}</style><clipPath id="clip-path"><circle class="cls-1" cx="56.82" cy="56.76" r="33.15"/></clipPath></defs><path class="cls-2" d="M0,56.32A56.33,56.33,0,0,1,56.32,0C74.2,0,72.79,21.66,83.11,34.65c7.63,9.62,29.54,8.45,29.54,21.67A56.33,56.33,0,1,1,0,56.32Z"/><rect class="cls-3" x="12.84" y="30.42" width="86.97" height="51.8" rx="1"/><rect class="cls-4" x="17.66" y="35.61" width="29.83" height="43.58" rx="1"/><rect class="cls-5" x="16.55" y="34.54" width="29.83" height="43.58" rx="1"/><rect class="cls-6" x="19.76" y="43.26" width="11.61" height="2.34"/><rect class="cls-6" x="19.76" y="47.14" width="11.61" height="2.34"/><rect class="cls-6" x="19.76" y="51.02" width="11.61" height="2.34"/><rect class="cls-6" x="19.76" y="54.91" width="23.07" height="2.34"/><rect class="cls-6" x="19.76" y="58.79" width="23.07" height="2.34"/><rect class="cls-6" x="19.76" y="66.55" width="23.07" height="2.34"/><rect class="cls-6" x="19.76" y="70.44" width="13.11" height="2.34"/><rect class="cls-7" x="32.73" y="43.25" width="10.1" height="10.1"/><rect class="cls-6" x="19.76" y="62.67" width="23.07" height="2.34"/><rect class="cls-8" x="53.85" y="45.8" width="38.71" height="5.77" rx="0.75"/><rect class="cls-8" x="53.85" y="53.44" width="38.71" height="5.77" rx="0.75"/><rect class="cls-8" x="53.85" y="61.08" width="38.71" height="5.77" rx="0.75"/><g class="cls-9"><path class="cls-3" d="M108.34,86.91a188.56,188.56,0,0,1-96.27,0,1.39,1.39,0,0,1-1-1.27V29a1.39,1.39,0,0,1,1-1.27,188.56,188.56,0,0,1,96.27,0,1.39,1.39,0,0,1,1,1.27V85.64A1.39,1.39,0,0,1,108.34,86.91Z"/><path class="cls-4" d="M49.14,88.67a211.43,211.43,0,0,1-31.7-4,1.33,1.33,0,0,1-1-1.26V33.84a1.31,1.31,0,0,1,1-1.24,233.81,233.81,0,0,1,31.7-3.66,1.06,1.06,0,0,1,1,1.17V87.5A1.06,1.06,0,0,1,49.14,88.67Z"/><path class="cls-5" d="M47.87,87.12a221.71,221.71,0,0,1-31.67-4,1.32,1.32,0,0,1-1-1.25v-49a1.31,1.31,0,0,1,1-1.24,221.71,221.71,0,0,1,31.67-4,1.05,1.05,0,0,1,1,1.16V86A1.06,1.06,0,0,1,47.87,87.12Z"/><path class="cls-6" d="M31.84,43.37q-6.56.41-13,1V41.57q6.48-.74,13-1.24Z"/><path class="cls-6" d="M31.84,48.42q-6.56.27-13,.65V46.25q6.48-.51,13-.87Z"/><path class="cls-6" d="M31.84,53.47q-6.56.12-13,.28V50.93q6.48-.3,13-.5Z"/><path class="cls-6" d="M44.84,58.58c-8.74,0-17.45-.08-26-.14V55.62c8.59-.11,17.3-.18,26-.22Z"/><path class="cls-6" d="M44.84,63.86c-8.74-.14-17.45-.38-26-.74V60.3c8.59.18,17.3.31,26,.38Z"/><path class="cls-6" d="M44.84,74.4c-8.74-.35-17.45-1-26-1.93V69.65c8.59.77,17.3,1.29,26,1.57Z"/><path class="cls-6" d="M33.55,78.87c-4.95-.44-9.87-1-14.75-1.71V74.34q7.32.9,14.75,1.47Z"/><path class="cls-7" d="M33.39,53.43q5.7-.09,11.45-.15V39.56q-5.75.24-11.45.65Z"/><path class="cls-6" d="M44.84,69.12c-8.74-.24-17.45-.68-26-1.33V65c8.59.47,17.3.8,26,1Z"/><path class="cls-8" d="M100.51,51.55c-14-.56-28.17-.83-42.37-.8a.85.85,0,0,1-.76-.91V43.69a.86.86,0,0,1,.76-.92c14.2-.06,28.42.53,42.37,1.77a.85.85,0,0,1,.74.87v5.37A.74.74,0,0,1,100.51,51.55Z"/><path class="cls-8" d="M100.51,60.83c-14,.34-28.17.5-42.37.48a.85.85,0,0,1-.76-.91V54.25a.85.85,0,0,1,.76-.91c14.2,0,28.42.14,42.37.48a.8.8,0,0,1,.74.82V60A.8.8,0,0,1,100.51,60.83Z"/><path class="cls-8" d="M100.51,70.11c-14,1.24-28.17,1.83-42.37,1.77a.86.86,0,0,1-.76-.92V64.81a.85.85,0,0,1,.76-.91c14.2,0,28.42-.24,42.37-.8a.73.73,0,0,1,.74.77v5.37A.85.85,0,0,1,100.51,70.11Z"/></g><circle class="cls-10" cx="56.82" cy="56.76" r="33.15"/></svg>