<?xml version="1.0" encoding="iso-8859-1"?><svg id="Layer_1" data-name="Layer 1" xmlns="http://www.w3.org/2000/svg" xmlns:xlink="http://www.w3.org/1999/xlink" viewBox="0 0 110.01 15.11"><defs><style>.cls-1{fill:#1b1b1b;}.cls-2{fill:url(#linear-gradient);}</style><linearGradient id="linear-gradient" x1="-3286.06" y1="-461.86" x2="-3285.91" y2="-461.86" gradientTransform="matrix(0, -104.04, -104.04, 0, -48045.07, -341872.18)" gradientUnits="userSpaceOnUse"><stop offset="0" stop-color="#69c48a"/><stop offset="1" stop-color="#64ca76"/></linearGradient></defs><g id="reviewsio-logo1"><path class="cls-1" d="M23.63,7.64c1.83,0,3.13-.94,3.13-2.51v0c0-1.49-1.15-2.4-3.11-2.4H19.9V7.64Zm-5.1-5.51a.7.7,0,0,1,.67-.7h4.56a4.8,4.8,0,0,1,3.45,1.22,3.36,3.36,0,0,1,.94,2.4v0c0,2-1.36,3.16-3.25,3.53l3,3.89a.75.75,0,0,1,.23.5.72.72,0,0,1-.7.68.8.8,0,0,1-.64-.36L23.39,8.87H19.9V13a.69.69,0,1,1-1.38,0V2.13Z"/><path class="cls-1" d="M30.91,12.9V2.13a.7.7,0,0,1,.68-.7h7.56a.63.63,0,0,1,.62.63.62.62,0,0,1-.62.62H32.28V6.84h6.08a.63.63,0,1,1,0,1.25H32.28v4.25h6.95a.63.63,0,1,1,0,1.26H31.59a.7.7,0,0,1-.68-.7"/><path class="cls-1" d="M46.29,13.16,41.59,2.34A.68.68,0,0,1,41.52,2a.71.71,0,0,1,.7-.67.75.75,0,0,1,.71.52l4.21,10.07L51.36,1.83A.8.8,0,0,1,52,1.35a.67.67,0,0,1,.67.66.59.59,0,0,1-.05.27L48,13.16a.83.83,0,0,1-.8.57h-.07a.8.8,0,0,1-.79-.57"/><path class="cls-1" d="M55.25,2a.69.69,0,1,1,1.37,0V13a.69.69,0,1,1-1.37,0Z"/><path class="cls-1" d="M60,12.9V2.13a.7.7,0,0,1,.68-.7h7.55a.63.63,0,0,1,.63.63.62.62,0,0,1-.63.62H61.38V6.84h6.08a.63.63,0,1,1,0,1.25H61.38v4.25h6.95a.63.63,0,1,1,0,1.26H60.69a.7.7,0,0,1-.68-.7"/><path class="cls-1" d="M70.74,2.35A1.08,1.08,0,0,1,70.67,2a.72.72,0,0,1,.72-.69.79.79,0,0,1,.71.57l3.35,9.66,3.18-9.69a.69.69,0,0,1,.68-.54h.09a.69.69,0,0,1,.67.54l3.18,9.69,3.37-9.69a.7.7,0,0,1,.66-.54A.72.72,0,0,1,88,2a1,1,0,0,1-.09.33L84,13.16a.76.76,0,0,1-.71.59h-.11a.77.77,0,0,1-.71-.59L79.31,3.81l-3.15,9.35a.76.76,0,0,1-.71.59h-.1a.74.74,0,0,1-.71-.59L70.74,2.35Z"/><path class="cls-1" d="M89.7,12.14a.63.63,0,0,1-.26-.53.66.66,0,0,1,.66-.67.61.61,0,0,1,.41.15,5.52,5.52,0,0,0,3.84,1.45c1.64,0,2.71-.87,2.71-2.07v0c0-1.13-.61-1.77-3.16-2.31-2.8-.61-4.08-1.51-4.08-3.51v0c0-1.91,1.68-3.32,4-3.32a6.21,6.21,0,0,1,3.88,1.2A.68.68,0,0,1,98,3a.68.68,0,0,1-1.06.54,5.11,5.11,0,0,0-3.14-1.06c-1.58,0-2.59.87-2.59,2v0c0,1.15.63,1.79,3.3,2.36s4,1.58,4,3.44v0c0,2.08-1.73,3.44-4.15,3.44a7.13,7.13,0,0,1-4.6-1.63"/><path class="cls-1" d="M100.51,12.22a.44.44,0,0,1,.45.46v.19a.45.45,0,0,1-.45.47.46.46,0,0,1-.47-.47v-.19a.45.45,0,0,1,.47-.46"/><path class="cls-1" d="M102.6,8.6a.38.38,0,1,1,.75,0V13a.38.38,0,1,1-.75,0Zm-.07-1.91a.44.44,0,0,1,.88,0v.13a.44.44,0,0,1-.88,0Z"/><path class="cls-1" d="M109.25,10.8v0a1.9,1.9,0,0,0-1.87-2,1.85,1.85,0,0,0-1.84,1.94v0a1.89,1.89,0,0,0,1.86,2,1.86,1.86,0,0,0,1.85-1.94m-4.48,0v0a2.6,2.6,0,0,1,2.63-2.62,2.57,2.57,0,0,1,2.61,2.6v0a2.61,2.61,0,0,1-2.63,2.63,2.58,2.58,0,0,1-2.61-2.61"/><path class="cls-2" d="M0,7.55A7.56,7.56,0,1,0,7.55,0,7.56,7.56,0,0,0,0,7.55Zm5.39,1L1.89,5.89H6.14L7.55,1.63,9,5.89h4.25L9.73,8.51l1.37,4.33L7.55,10.11,4,12.84Z"/></g></svg>