<?xml version="1.0" encoding="iso-8859-1"?><svg id="Layer_1" data-name="Layer 1" xmlns="http://www.w3.org/2000/svg" viewBox="0 0 97.38 27.48"><defs><style>.cls-1{fill:#2b618d;}</style></defs><path class="cls-1" d="M17.09,14a10.84,10.84,0,0,0-2.87-1.25c-1-.28-2-.54-3-.78s-2-.46-2.92-.72A9.84,9.84,0,0,1,6,10.36,4.31,4.31,0,0,1,4.55,9.14a3,3,0,0,1-.46-1.79,2.88,2.88,0,0,1,.48-1.72A4.25,4.25,0,0,1,5.93,4.36a7.07,7.07,0,0,1,2-.79A9.29,9.29,0,0,1,13,3.76,13.33,13.33,0,0,1,15.73,5c.07.06.18.11.3.19l.34.23a3.23,3.23,0,0,0,.48.29,1.6,1.6,0,0,0,.79.24,1.64,1.64,0,0,0,1.17-.5,1.6,1.6,0,0,0,.5-1.17A1.43,1.43,0,0,0,19,3.33c-.07-.08-.15-.19-.27-.31A8.89,8.89,0,0,0,16.87,1.7,15.4,15.4,0,0,0,14.6.77,15.89,15.89,0,0,0,12.21.21,12.61,12.61,0,0,0,10,0,11.31,11.31,0,0,0,6.92.45,10.7,10.7,0,0,0,4,1.75a7.54,7.54,0,0,0-2.27,2.3A6.37,6.37,0,0,0,.82,7.44a6.5,6.5,0,0,0,.52,2.61,6.79,6.79,0,0,0,1.39,2,7.75,7.75,0,0,0,2,1.42,11.38,11.38,0,0,0,2.21.86c.59.15,1.27.31,2.06.46s1.5.31,2.27.5,1.53.41,2.27.67a7.71,7.71,0,0,1,1.82.89A4.09,4.09,0,0,1,16.49,18a2.47,2.47,0,0,1,.38,1.42,3.91,3.91,0,0,1-.48,2A4.82,4.82,0,0,1,15,22.93a6.5,6.5,0,0,1-2,.93,9.19,9.19,0,0,1-2.3.33,9.7,9.7,0,0,1-4.2-.88A17.64,17.64,0,0,1,2.8,20.89a1.6,1.6,0,0,0-1.1-.47A1.68,1.68,0,0,0,.46,21,1.71,1.71,0,0,0,0,22.11a1.69,1.69,0,0,0,.55,1.18,15.89,15.89,0,0,0,4.59,3,13.47,13.47,0,0,0,5.49,1.14,12,12,0,0,0,3.3-.47,10.43,10.43,0,0,0,3-1.41,7.63,7.63,0,0,0,2.29-2.47,7.07,7.07,0,0,0,.89-3.54,6.16,6.16,0,0,0-.88-3.4A6.88,6.88,0,0,0,17.09,14Z"/><path class="cls-1" d="M37.24,19h0l-8.37-2.25,3.32-7,2-4.45,2,4.45L44,26.5a1.62,1.62,0,0,0,1.5.95h.12a.93.93,0,0,0,.29-.05l.19-.07a1.58,1.58,0,0,0,1-1.65c0-.24,0-.24-.55-1.41-.29-.65-.69-1.49-1.17-2.54l-1.65-3.57L41.83,14c-.64-1.39-1.29-2.81-1.95-4.2s-1.23-2.65-1.75-3.78L35.8,1a1.82,1.82,0,0,0-3.18,0L25.23,17l-.1.21-3.66,8a1.9,1.9,0,0,0-.19.7,1.61,1.61,0,0,0,1.57,1.63,1.56,1.56,0,0,0,.75-.17h0L37.41,20.9h0a1,1,0,0,0-.17-1.9Z"/><path class="cls-1" d="M71.75,25.15a1.9,1.9,0,0,0-.19.7,1.6,1.6,0,0,0,2.32,1.46h0L87.69,20.9h0a1,1,0,0,0,.58-.89,1,1,0,0,0-.75-1h0l-8.37-2.24,3.32-7,2-4.45,2,4.45,7.73,16.71a1.62,1.62,0,0,0,1.49.95h.12a.73.73,0,0,0,.3-.06l.19-.06a1.6,1.6,0,0,0,1-1.65c0-.24,0-.24-.55-1.41l-1.17-2.54c-.48-1-1-2.24-1.65-3.58s-1.25-2.71-1.91-4.12-1.29-2.82-1.94-4.21S88.93,7.2,88.41,6.06s-1.27-2.78-1.65-3.57L86.06,1a1.83,1.83,0,0,0-3.18,0L75.49,17l-.1.2Z"/><path class="cls-1" d="M50.17,23.43a13.64,13.64,0,0,0,4.35,2.92,13.44,13.44,0,0,0,5.36,1.08,14.24,14.24,0,0,0,4.84-.86,12,12,0,0,0,4.33-2.66,1.64,1.64,0,0,0,.5-1.18l0-7.77a1.58,1.58,0,0,0-1.65-1.67H59.52a1.62,1.62,0,0,0-1.65,1.62A1.63,1.63,0,0,0,58.3,16a1.61,1.61,0,0,0,1.22.51H66.3v5.38a11.52,11.52,0,0,1-2.79,1.54,9.77,9.77,0,0,1-3.59.67,10.28,10.28,0,0,1-4-.8,11,11,0,0,1-3.34-2.25,10.86,10.86,0,0,1-2.25-3.34,10.58,10.58,0,0,1,0-8.07,10.93,10.93,0,0,1,2.25-3.33,10.8,10.8,0,0,1,3.34-2.25,9.94,9.94,0,0,1,4-.81A9.32,9.32,0,0,1,63.59,4a12.46,12.46,0,0,1,3.21,2,1.53,1.53,0,0,0,1.08.45,1.66,1.66,0,0,0,1.24-.55,1.78,1.78,0,0,0,.46-1.17A1.65,1.65,0,0,0,69,3.49,12.11,12.11,0,0,0,64.76.86,14.18,14.18,0,0,0,59.93,0a13.44,13.44,0,0,0-5.36,1.08A14.17,14.17,0,0,0,50.23,4a13.75,13.75,0,0,0-2.92,4.35,13.24,13.24,0,0,0-1.09,5.36,13.28,13.28,0,0,0,1.09,5.36A13,13,0,0,0,50.17,23.43Z"/></svg>