<?xml version="1.0" encoding="iso-8859-1"?><svg id="Layer_1" data-name="Layer 1" xmlns="http://www.w3.org/2000/svg" viewBox="0 0 31.46 48.23"><defs><style>.cls-1{fill:#e5f0f4;}.cls-2{fill:none;stroke:#037098;stroke-miterlimit:10;stroke-width:0.75px;}.cls-3{fill:#037098;}.cls-4{fill:#de026d;}</style></defs><path class="cls-1" d="M29.13,3.34v-1a1,1,0,0,0-1-1L11,3.34Z"/><rect class="cls-1" x="1.49" y="4.46" width="29.96" height="43.77" rx="1"/><rect class="cls-2" x="0.38" y="3.38" width="29.96" height="43.77" rx="1"/><rect class="cls-3" x="5.31" y="35.21" width="20.1" height="1.59"/><rect class="cls-4" x="10.33" y="37.85" width="10.05" height="1.59"/><path class="cls-3" d="M15.36,12.87a8.05,8.05,0,1,0,8.05,8.05A8,8,0,0,0,15.36,12.87Zm7,10.87L20,24.13a12.2,12.2,0,0,0,.42-2.94h2.41A7.46,7.46,0,0,1,22.32,23.74ZM7.85,21.19h2.41a12.2,12.2,0,0,0,.42,2.94L8.4,23.74A7.47,7.47,0,0,1,7.85,21.19ZM8.4,18.1l2.28-.4a12.21,12.21,0,0,0-.42,2.95H7.85A7.42,7.42,0,0,1,8.4,18.1Zm7.23-.92a18.45,18.45,0,0,1,2.87.26l.95.16a11.27,11.27,0,0,1,.46,3H15.63Zm3-.27a18.41,18.41,0,0,0-3-.27V13.42c1.53.15,2.87,1.56,3.63,3.61Zm-3.5-.27a18.43,18.43,0,0,0-3,.27l-.66.12c.75-2.05,2.09-3.46,3.63-3.61Zm-2.88.8a18.46,18.46,0,0,1,2.88-.26v3.47H10.8a11.28,11.28,0,0,1,.47-3ZM10.8,21.19h4.29v3.47a18.46,18.46,0,0,1-2.88-.26l-.94-.17A11.21,11.21,0,0,1,10.8,21.19Zm1.32,3.74a19.64,19.64,0,0,0,3,.27v3.22c-1.54-.15-2.88-1.56-3.63-3.61Zm3.51.27a19.62,19.62,0,0,0,3-.27l.67-.12c-.76,2.05-2.1,3.46-3.63,3.61Zm2.87-.8a18.45,18.45,0,0,1-2.87.26V21.19h4.28a11.19,11.19,0,0,1-.46,3Zm1.95-3.75A12.21,12.21,0,0,0,20,17.7l2.29.4a7.41,7.41,0,0,1,.54,2.55Zm1.6-3.14-2.2-.38a7.36,7.36,0,0,0-2.13-3.34A7.54,7.54,0,0,1,22.05,17.51Zm-9-3.72a7.38,7.38,0,0,0-2.14,3.34l-2.19.38A7.51,7.51,0,0,1,13,13.79ZM8.67,24.33l2.19.38A7.38,7.38,0,0,0,13,28.05,7.54,7.54,0,0,1,8.67,24.33Zm9,3.72a7.36,7.36,0,0,0,2.13-3.34l2.2-.38A7.57,7.57,0,0,1,17.72,28.05Z"/><path class="cls-2" d="M.38,4.38a1,1,0,0,1,1-1l26-3a1,1,0,0,1,1,1v2"/></svg>