<?xml version="1.0" encoding="iso-8859-1"?><svg id="Layer_1" data-name="Layer 1" xmlns="http://www.w3.org/2000/svg" viewBox="0 0 105.54 46.35"><defs><style>.cls-1{fill:#191919;}.cls-2{fill:#56b27f;}.cls-3{fill:#224f2c;}.cls-4{fill:#fff;}.cls-5{font-size:7.19px;fill:#1b1b1b;font-family:SofiaProMedium, Sofia Pro;}.cls-6,.cls-7,.cls-8{font-family:SofiaProRegular, Sofia Pro;}.cls-7{letter-spacing:-0.01em;}.cls-8{letter-spacing:-0.02em;}</style></defs><path class="cls-1" d="M28.07,9.13H38.7v2H34.52V22.26H32.23V11.12H28.07Zm10.17,3.62h2v1.84h0a2,2,0,0,1,.36-.75,3.72,3.72,0,0,1,.64-.68,3.16,3.16,0,0,1,.84-.48,2.59,2.59,0,0,1,.94-.19l.5,0,.29,0v2l-.45-.06-.45,0a2.47,2.47,0,0,0-1,.21,2.23,2.23,0,0,0-.81.63,2.77,2.77,0,0,0-.55,1,4.23,4.23,0,0,0-.21,1.39v4.53H38.24Zm15.18,9.51H51.37V20.93h0a2.89,2.89,0,0,1-1.15,1.15,3.11,3.11,0,0,1-1.55.43,3.51,3.51,0,0,1-2.72-.93,4.09,4.09,0,0,1-.83-2.8v-6h2.09v5.83a2.56,2.56,0,0,0,.48,1.76,1.73,1.73,0,0,0,1.34.52,2.75,2.75,0,0,0,1.11-.2,2,2,0,0,0,.71-.55,2,2,0,0,0,.4-.81,4.28,4.28,0,0,0,.12-1V12.75h2.09ZM57,19.2a1.55,1.55,0,0,0,.7,1.29,2.7,2.7,0,0,0,1.45.37,5.73,5.73,0,0,0,.67-.05,3.2,3.2,0,0,0,.71-.17,1.32,1.32,0,0,0,.54-.38.91.91,0,0,0,.2-.65A.93.93,0,0,0,61,19a2,2,0,0,0-.71-.42,6.57,6.57,0,0,0-1-.26L58.15,18A9.86,9.86,0,0,1,57,17.71a3.6,3.6,0,0,1-1-.49,2.55,2.55,0,0,1-.69-.8,2.61,2.61,0,0,1-.25-1.21,2.16,2.16,0,0,1,.37-1.29,3,3,0,0,1,1-.85,4.38,4.38,0,0,1,1.29-.45,8.1,8.1,0,0,1,1.35-.13,6.32,6.32,0,0,1,1.4.16,3.59,3.59,0,0,1,1.22.51,2.9,2.9,0,0,1,.9.91A3.08,3.08,0,0,1,63,15.42H60.85a1.3,1.3,0,0,0-.69-1,2.72,2.72,0,0,0-1.24-.26l-.52,0a3,3,0,0,0-.57.14,1.19,1.19,0,0,0-.45.3.66.66,0,0,0-.19.5.8.8,0,0,0,.27.63,2,2,0,0,0,.7.39,5.76,5.76,0,0,0,1,.27l1.14.24A10.27,10.27,0,0,1,61.4,17a3.54,3.54,0,0,1,1,.5,2.39,2.39,0,0,1,.69.79,2.35,2.35,0,0,1,.27,1.17A2.62,2.62,0,0,1,63,20.86a3.06,3.06,0,0,1-1,.95,4.36,4.36,0,0,1-1.37.54,6.93,6.93,0,0,1-1.49.16,6.24,6.24,0,0,1-1.66-.2,3.66,3.66,0,0,1-1.32-.62,2.79,2.79,0,0,1-.88-1,3.35,3.35,0,0,1-.35-1.47Zm6.91-6.45h1.58V9.9h2.1v2.85h1.89v1.56H67.58v5.08a4.67,4.67,0,0,0,0,.57.94.94,0,0,0,.13.4.58.58,0,0,0,.3.25,1.39,1.39,0,0,0,.55.08H69a1.61,1.61,0,0,0,.44-.06v1.62l-.68.07c-.22,0-.44,0-.68,0a4.43,4.43,0,0,1-1.33-.16,1.74,1.74,0,0,1-.79-.46A1.58,1.58,0,0,1,65.6,21a7.61,7.61,0,0,1-.12-1V14.31H63.9Zm7,0h2V14h0a2.58,2.58,0,0,1,1.23-1.19,4,4,0,0,1,1.71-.36,4.55,4.55,0,0,1,2,.4A3.73,3.73,0,0,1,79.25,14a4.65,4.65,0,0,1,.83,1.61,7,7,0,0,1,.28,2,7.19,7.19,0,0,1-.25,1.86A4.88,4.88,0,0,1,79.35,21a3.75,3.75,0,0,1-1.27,1.1,3.91,3.91,0,0,1-1.82.41,4.7,4.7,0,0,1-.92-.08,4,4,0,0,1-.89-.27,3.44,3.44,0,0,1-.78-.47,2.52,2.52,0,0,1-.59-.67h0v4.75h-2.1Zm7.32,4.76a4.77,4.77,0,0,0-.17-1.25,3.38,3.38,0,0,0-.49-1.07,2.51,2.51,0,0,0-.83-.76,2.24,2.24,0,0,0-1.14-.28,2.28,2.28,0,0,0-2,.92A4,4,0,0,0,73,17.51a4.82,4.82,0,0,0,.17,1.34,3,3,0,0,0,.52,1,2.67,2.67,0,0,0,.84.7,2.41,2.41,0,0,0,1.13.26,2.29,2.29,0,0,0,1.21-.3,2.4,2.4,0,0,0,.82-.76,3,3,0,0,0,.46-1.07A5.43,5.43,0,0,0,78.26,17.51ZM82,9.13h2.09v2H82Zm0,3.62h2.09v9.51H82Zm4-3.62H88V22.26h-2.1Zm8.52,13.38a5.26,5.26,0,0,1-2-.37,4.48,4.48,0,0,1-1.5-1A4.4,4.4,0,0,1,90,19.52a6,6,0,0,1-.32-2,5.87,5.87,0,0,1,.32-2,4.4,4.4,0,0,1,.94-1.58,4.34,4.34,0,0,1,1.5-1,5.64,5.64,0,0,1,4.07,0,4.34,4.34,0,0,1,1.5,1,4.4,4.4,0,0,1,.94,1.58,5.87,5.87,0,0,1,.32,2,6,6,0,0,1-.32,2A4.4,4.4,0,0,1,98,21.1a4.48,4.48,0,0,1-1.5,1A5.25,5.25,0,0,1,94.44,22.51Zm0-1.65a2.36,2.36,0,0,0,1.21-.3,2.48,2.48,0,0,0,.84-.77A3.37,3.37,0,0,0,97,18.72a4.73,4.73,0,0,0,0-2.44,3.18,3.18,0,0,0-.49-1.07,2.58,2.58,0,0,0-.84-.77,2.69,2.69,0,0,0-2.43,0,2.58,2.58,0,0,0-.84.77,3.18,3.18,0,0,0-.49,1.07,4.73,4.73,0,0,0,0,2.44,3.37,3.37,0,0,0,.49,1.07,2.48,2.48,0,0,0,.84.77A2.37,2.37,0,0,0,94.44,20.86Zm5.4-8.11h1.58V9.9h2.1v2.85h1.89v1.56h-1.89v5.08c0,.22,0,.41,0,.57a.94.94,0,0,0,.13.4.65.65,0,0,0,.31.25,1.36,1.36,0,0,0,.55.08H105a1.67,1.67,0,0,0,.44-.06v1.62l-.68.07c-.22,0-.45,0-.68,0a4.38,4.38,0,0,1-1.33-.16,1.74,1.74,0,0,1-.79-.46,1.58,1.58,0,0,1-.39-.76,5.42,5.42,0,0,1-.12-1V14.31H99.84Z"/><polygon class="cls-2" points="25.62 9.13 16.03 9.13 13.06 0 10.1 9.13 0.5 9.13 8.26 14.77 5.3 23.9 13.06 18.26 20.82 23.9 17.86 14.77 25.62 9.13 25.62 9.13 25.62 9.13 25.62 9.13"/><polygon class="cls-3" points="18.53 16.84 17.86 14.77 13.06 18.26 18.53 16.84"/><rect class="cls-2" y="34.5" width="11.85" height="11.85"/><polygon class="cls-4" points="5.93 42.52 8.5 44.39 7.74 42.05 5.93 42.52"/><polygon class="cls-4" points="10.09 39.49 6.91 39.49 5.93 36.46 4.94 39.49 1.76 39.49 4.33 41.36 3.35 44.39 5.93 42.52 7.52 41.36 10.09 39.49"/><rect class="cls-2" x="12.82" y="34.5" width="11.85" height="11.85"/><polygon class="cls-4" points="18.75 42.52 21.32 44.39 20.57 42.05 18.75 42.52"/><polygon class="cls-4" points="22.92 39.49 19.73 39.49 18.75 36.46 17.77 39.49 14.58 39.49 17.16 41.36 16.18 44.39 18.75 42.52 20.34 41.36 22.92 39.49"/><rect class="cls-2" x="25.65" y="34.5" width="11.85" height="11.85"/><polygon class="cls-4" points="31.57 42.52 34.15 44.39 33.39 42.05 31.57 42.52"/><polygon class="cls-4" points="35.74 39.49 32.56 39.49 31.57 36.46 30.59 39.49 27.41 39.49 29.98 41.36 29 44.39 31.57 42.52 33.17 41.36 35.74 39.49"/><rect class="cls-2" x="38.47" y="34.5" width="11.85" height="11.85"/><polygon class="cls-4" points="44.4 42.52 46.97 44.39 46.21 42.05 44.4 42.52"/><polygon class="cls-4" points="48.56 39.49 45.38 39.49 44.4 36.46 43.41 39.49 40.23 39.49 42.81 41.36 41.82 44.39 44.4 42.52 45.99 41.36 48.56 39.49"/><rect class="cls-2" x="51.3" y="34.5" width="11.85" height="11.85"/><polygon class="cls-4" points="57.22 42.52 59.8 44.39 59.04 42.05 57.22 42.52"/><polygon class="cls-4" points="61.39 39.49 58.21 39.49 57.22 36.46 56.24 39.49 53.05 39.49 55.63 41.36 54.65 44.39 57.22 42.52 58.81 41.36 61.39 39.49"/><text class="cls-5" transform="translate(68.97 43.3)">4.9<tspan class="cls-6" x="10.16" y="0" xml:space="preserve"> out </tspan><tspan class="cls-7" x="24.39" y="0">o</tspan><tspan class="cls-8" x="28.49" y="0">f</tspan><tspan class="cls-6" x="30.73" y="0"> </tspan><tspan x="32.55" y="0">5</tspan></text></svg>