<?xml version="1.0" encoding="iso-8859-1"?><svg id="Layer_1" data-name="Layer 1" xmlns="http://www.w3.org/2000/svg" viewBox="0 0 44.39 42.88"><defs><style>.cls-1{fill:#e5f0f4;}.cls-2,.cls-3{fill:none;stroke-miterlimit:10;stroke-width:0.75px;}.cls-2{stroke:#037098;}.cls-3{stroke:#de026d;}</style></defs><circle class="cls-1" cx="40.85" cy="25.83" r="3.54"/><path class="cls-1" d="M9.85,27.58h4.48a0,0,0,0,1,0,0V30a2.09,2.09,0,0,1-2.09,2.09h-.3A2.09,2.09,0,0,1,9.85,30V27.58A0,0,0,0,1,9.85,27.58Z"/><rect class="cls-1" x="5.51" y="0.9" width="4.59" height="2.96" rx="1.48"/><rect class="cls-1" x="14.33" y="0.9" width="4.59" height="2.96" rx="1.48" transform="translate(33.26 4.76) rotate(-180)"/><path class="cls-1" d="M19.47,16.05h0a7.33,7.33,0,1,1-14.65,0h-4a11.33,11.33,0,1,0,22.65,0h-4Z"/><path class="cls-2" d="M40.4,21.52V18.26a5.65,5.65,0,0,0-5.66-5.65h0a5.66,5.66,0,0,0-5.66,5.65V33.81a8.69,8.69,0,0,1-8.69,8.69h0a8.69,8.69,0,0,1-8.69-8.69V31.54"/><circle class="cls-3" cx="40.4" cy="25.3" r="3.54"/><path class="cls-2" d="M9.4,27.05h4.48a0,0,0,0,1,0,0v2.39a2.09,2.09,0,0,1-2.09,2.09h-.3A2.09,2.09,0,0,1,9.4,29.45V27.05A0,0,0,0,1,9.4,27.05Z"/><rect class="cls-2" x="5.06" y="0.37" width="4.59" height="2.96" rx="1.48"/><path class="cls-2" d="M5.06,1.85h0A2.63,2.63,0,0,0,2.43,4.48v11"/><rect class="cls-2" x="13.89" y="0.37" width="4.59" height="2.96" rx="1.48" transform="translate(32.36 3.71) rotate(180)"/><path class="cls-2" d="M18.48,1.85h0a2.63,2.63,0,0,1,2.63,2.63v11"/><path class="cls-2" d="M19,15.52h0a7.23,7.23,0,0,1-4.89,6.93,7.35,7.35,0,0,1-9.76-6.93h-4a11.22,11.22,0,0,0,7.7,10.77A11.37,11.37,0,0,0,23,15.52H19Z"/></svg>