<?xml version="1.0" encoding="iso-8859-1"?><svg id="Layer_1" data-name="Layer 1" xmlns="http://www.w3.org/2000/svg" viewBox="0 0 244.35 51.71"><defs><style>.cls-1{fill:#336f93;}.cls-2{fill:#081b19;}</style></defs><path class="cls-1" d="M52.1.17l-5.65,8v6.74H44.26V8.12L38.65.17h2.6l4.09,5.88L49.5.17Z"/><path class="cls-1" d="M55.26,7.55a7.44,7.44,0,1,1,14.87,0,7.44,7.44,0,1,1-14.87,0Zm12.68,0a5.25,5.25,0,1,0-10.49,0,5.25,5.25,0,1,0,10.49,0Z"/><path class="cls-1" d="M75.93,9.76V.17h2.2V9.74a3.23,3.23,0,0,0,6.46,0V.17h2.19V9.76a5.43,5.43,0,0,1-10.85,0Z"/><path class="cls-1" d="M97.42,9.38H95.74v5.48h-2.2V.17h5.61c3.22,0,4.52,2.32,4.52,4.65a4.2,4.2,0,0,1-3.78,4.52l3.9,5.52h-2.62ZM95.74,7.46h2.87c2,0,2.86-1.09,2.86-2.64a2.39,2.39,0,0,0-2.35-2.65H95.74Z"/><path class="cls-2" d="M129.25.17V14.86h-2.2V8.55h-6.78v6.31h-2.19V.17h2.19v6.4h6.78V.17Z"/><path class="cls-2" d="M145.17,12.85v2h-9V.17H145v2h-6.63V6.63h5.77v2h-5.77v4.2Z"/><path class="cls-2" d="M159,11.15h-6.09l-1.37,3.71h-2.3L154.82.17h2.35l5.54,14.69h-2.3Zm-.7-1.92L156,2.9l-2.35,6.33Z"/><path class="cls-2" d="M167.68.17h2.19V12.85h5.91v2h-8.1Z"/><path class="cls-2" d="M188.7,2.17h-4.37V14.86h-2.2V2.17h-4.37v-2H188.7Z"/><path class="cls-2" d="M205.26.17V14.86h-2.2V8.55h-6.78v6.31h-2.19V.17h2.19v6.4h6.78V.17Z"/><path class="cls-1" d="M19.22,30.42,11.15,41.78V51.4H8V41.78L0,30.42H3.71l5.85,8.4,5.94-8.4Z"/><path class="cls-1" d="M23.72,41a10.63,10.63,0,1,1,10.6,10.76A10.61,10.61,0,0,1,23.72,41Zm18.12,0a7.5,7.5,0,1,0-15,0,7.5,7.5,0,1,0,15,0Z"/><path class="cls-1" d="M53.26,44.12V30.42H56.4V44.09a4.26,4.26,0,0,0,4.6,4.6,4.29,4.29,0,0,0,4.63-4.6V30.42h3.13v13.7c0,4.81-3.59,7.59-7.76,7.59S53.26,48.93,53.26,44.12Z"/><path class="cls-1" d="M84,43.57H81.55V51.4H78.41v-21h8c4.6,0,6.46,3.32,6.46,6.64,0,3-1.52,6-5.39,6.45l5.57,7.89H89.32Zm-2.41-2.74h4.11c2.9,0,4.08-1.55,4.08-3.77s-1.31-3.78-3.35-3.78H81.55Z"/><path class="cls-2" d="M112.06,41A10.67,10.67,0,0,1,122.72,30.2,10.22,10.22,0,0,1,130.79,34l-2.31,1.86a7.27,7.27,0,0,0-5.73-2.71,7.83,7.83,0,0,0,0,15.65,7.4,7.4,0,0,0,5.73-2.71l2.31,1.86a10.25,10.25,0,0,1-8.07,3.78A10.68,10.68,0,0,1,112.06,41Z"/><path class="cls-2" d="M154.79,30.42v21h-3.14v-9H142v9h-3.14v-21H142v9.13h9.68V30.42Z"/><path class="cls-2" d="M163.28,41a10.63,10.63,0,1,1,10.6,10.76A10.61,10.61,0,0,1,163.28,41Zm18.12,0a7.5,7.5,0,1,0-15,0,7.5,7.5,0,1,0,15,0Z"/><path class="cls-2" d="M193.07,30.42h3.13v21h-3.13Z"/><path class="cls-2" d="M204.73,41A10.67,10.67,0,0,1,215.39,30.2,10.23,10.23,0,0,1,223.46,34l-2.32,1.86a7.27,7.27,0,0,0-5.72-2.71,7.83,7.83,0,0,0,0,15.65,7.39,7.39,0,0,0,5.72-2.71l2.32,1.86a10.26,10.26,0,0,1-8.07,3.78A10.68,10.68,0,0,1,204.73,41Z"/><path class="cls-2" d="M244.35,48.54V51.4H231.5v-21h12.57v2.86H234.6v6.36h8.26v2.9H234.6v6Z"/></svg>