<?xml version="1.0" encoding="iso-8859-1"?><svg id="Layer_1" data-name="Layer 1" xmlns="http://www.w3.org/2000/svg" viewBox="0 0 112.65 116.12"><defs><style>.cls-1{fill:#f9f8fa;}.cls-2{fill:#e5f0f4;}.cls-3{fill:#fff;stroke:#d5d5d5;stroke-width:0.5px;}.cls-3,.cls-4{stroke-miterlimit:10;}.cls-4{fill:none;stroke:#037098;stroke-width:0.75px;}.cls-5{fill:#037098;}.cls-6{fill:#de026d;}</style></defs><path class="cls-1" d="M0,56.32A56.33,56.33,0,0,1,56.32,0C74.2,0,72.79,21.66,83.11,34.65c7.63,9.62,29.54,8.45,29.54,21.67A56.33,56.33,0,1,1,0,56.32Z"/><rect class="cls-2" x="39.41" y="30.28" width="36.56" height="53.41" rx="1"/><rect class="cls-3" x="3.1" y="32.15" width="32.2" height="47.04" rx="1"/><rect class="cls-4" x="38.04" y="28.96" width="36.56" height="53.41" rx="1"/><rect class="cls-3" x="77.35" y="32.15" width="32.2" height="47.04" rx="1"/><rect class="cls-5" x="41.98" y="39.65" width="28.27" height="2.87"/><rect class="cls-5" x="41.98" y="44.38" width="16.07" height="2.87"/><rect class="cls-6" x="41.98" y="73.6" width="7.4" height="2.87"/><path class="cls-3" d="M98.34,96.47,71.07,68.78a.7.7,0,0,0-1.19.53l2.33,38.8a.7.7,0,0,0,1.22.41l6.9-7.94L87,115.45a.71.71,0,0,0,.92.36l5.72-2.55a.7.7,0,0,0,.35-.92L87.32,97.47l10.52.19A.7.7,0,0,0,98.34,96.47Z"/><path class="cls-4" d="M95.81,93.75,68.54,66.05a.7.7,0,0,0-1.19.53l2.33,38.8a.7.7,0,0,0,1.22.42l6.9-8,6.62,14.87a.69.69,0,0,0,.92.36l5.72-2.55a.7.7,0,0,0,.35-.92L84.79,94.74l10.51.19A.69.69,0,0,0,95.81,93.75Z"/></svg>