<?xml version="1.0" encoding="iso-8859-1"?><svg id="Layer_1" data-name="Layer 1" xmlns="http://www.w3.org/2000/svg" viewBox="0 0 49.16 44.42"><defs><style>.cls-1{fill:#e5f0f4;}.cls-2{fill:none;stroke:#037098;stroke-miterlimit:10;stroke-width:0.75px;}.cls-3{fill:#037098;}.cls-4{fill:#de026d;}</style></defs><rect class="cls-1" x="1.49" y="20.16" width="29.96" height="10.8" rx="1"/><rect class="cls-2" x="0.38" y="19.08" width="29.96" height="10.8" rx="1"/><rect class="cls-3" x="5.31" y="22.56" width="20.1" height="1.59"/><rect class="cls-3" x="5.31" y="25.19" width="10.05" height="1.59"/><rect class="cls-1" x="1.49" y="33.62" width="29.96" height="10.8" rx="1"/><rect class="cls-2" x="0.38" y="32.54" width="29.96" height="10.8" rx="1"/><rect class="cls-3" x="5.31" y="36.02" width="20.1" height="1.59"/><rect class="cls-3" x="5.31" y="38.65" width="10.05" height="1.59"/><path class="cls-1" d="M38.13,1a11,11,0,0,0-9.3,17L28,22.25l4.32-.88A11,11,0,1,0,38.13,1Z"/><path class="cls-3" d="M37.39,1a10,10,0,1,1-5.33,18.53l-.34-.21-.39.08L28.49,20l.57-2.82.08-.39-.21-.35A10,10,0,0,1,37.39,1m0-1a11,11,0,0,0-9.31,17l-.87,4.3,4.32-.88a10.91,10.91,0,0,0,5.86,1.68A11,11,0,1,0,37.39,0Z"/><path class="cls-4" d="M35.92,12.76a2.25,2.25,0,0,1,1.7-2.54l.56-.22a1.75,1.75,0,0,0,1.29-1.65,1.63,1.63,0,0,0-1.72-1.77,2,2,0,0,0-1.94,2H34.22A3.46,3.46,0,0,1,37.75,5a3.22,3.22,0,0,1,3.37,3.32,3.36,3.36,0,0,1-2.43,3.21c-.7.22-1.19.42-1.19,1.21l0,.59H35.93Zm-.39,3.14A1.17,1.17,0,1,1,36.7,17,1.12,1.12,0,0,1,35.53,15.9Z"/></svg>