<?xml version="1.0" encoding="iso-8859-1"?><svg id="Layer_1" data-name="Layer 1" xmlns="http://www.w3.org/2000/svg" viewBox="0 0 45.23 31.43"><defs><style>.cls-1{fill:#e5f0f4;}.cls-2{fill:none;stroke:#037098;stroke-miterlimit:10;stroke-width:0.75px;}.cls-3{fill:#037098;}.cls-4{fill:#fff;}.cls-5{fill:#de026d;}</style></defs><rect class="cls-1" x="8.36" y="-5.44" width="29.96" height="43.77" rx="1" transform="translate(6.9 39.79) rotate(-90)"/><rect class="cls-2" x="7.28" y="-6.53" width="29.96" height="43.77" rx="1" transform="translate(6.9 37.62) rotate(-90)"/><path class="cls-3" d="M37.19,13.07V10.82h2.25a.18.18,0,0,0,.18-.19V8a.18.18,0,0,0-.18-.18H37.19V5.58A.19.19,0,0,0,37,5.39H34.38a.19.19,0,0,0-.18.19V7.83H32a.19.19,0,0,0-.19.18v2.62a.19.19,0,0,0,.19.19H34.2v2.25a.18.18,0,0,0,.18.18H37A.18.18,0,0,0,37.19,13.07Z"/><rect class="cls-3" x="5.36" y="21.46" width="20.1" height="1.59"/><rect class="cls-3" x="5.36" y="24.1" width="10.05" height="1.59"/><rect class="cls-4" x="5.22" y="4.38" width="10.86" height="10.86"/><path class="cls-5" d="M6.87,15.24h7.39a4.36,4.36,0,0,0-3.15-3.36,2.61,2.61,0,1,0-1,0A4.3,4.3,0,0,0,6.87,15.24Z"/></svg>