<?xml version="1.0" encoding="iso-8859-1"?><svg id="Layer_1" data-name="Layer 1" xmlns="http://www.w3.org/2000/svg" viewBox="0 0 28.86 43.41"><defs><style>.cls-1{fill:#e5f0f4;}.cls-2{fill:#fff;}.cls-3{fill:#037098;}.cls-4{fill:none;stroke:#037098;stroke-miterlimit:10;stroke-width:0.75px;}.cls-5{fill:#de026d;}</style></defs><path class="cls-1" d="M28.31,15,24.7,10.13H25a1,1,0,0,0,1.05-1V2.48a1,1,0,0,0-1.05-1H5.24a1,1,0,0,0-1,1.05V9.09a1,1,0,0,0,1,1h.35L2,15a2.74,2.74,0,0,0-.56,1.68V39.33A4.08,4.08,0,0,0,5.5,43.41H25.62c2.25,0,3.24-1.82,3.24-4.08V16.66A2.79,2.79,0,0,0,28.31,15Z"/><rect class="cls-2" x="0.38" y="17.06" width="27.45" height="17.02"/><rect class="cls-3" x="7.19" y="36.85" width="13.81" height="1.09"/><rect class="cls-3" x="10.64" y="38.66" width="6.91" height="1.09"/><path class="cls-4" d="M27.82,15.61V38.28c0,2.25-1,4.08-3.25,4.08H4.46A4.08,4.08,0,0,1,.38,38.28V15.61a2.79,2.79,0,0,1,.55-1.68L4.54,9.08H23.65l3.61,4.85a2.8,2.8,0,0,1,.56,1.68Z"/><path class="cls-3" d="M.37,18.22V36.77"/><path class="cls-4" d="M25.05,1.42V8A1,1,0,0,1,24,9.08H4.19A1,1,0,0,1,3.15,8V1.42a1,1,0,0,1,1-1H24A1,1,0,0,1,25.05,1.42Z"/><line class="cls-4" x1="0.38" y1="17.06" x2="27.82" y2="17.06"/><line class="cls-4" x1="0.38" y1="34.08" x2="27.82" y2="34.08"/><path class="cls-5" d="M17.88,22.49a2.51,2.51,0,0,0-1.77-.73,2.45,2.45,0,0,0-1.76.74l-.25.24-.25-.25A2.49,2.49,0,1,0,10.33,26l3.58,3.58a.27.27,0,0,0,.18.08.26.26,0,0,0,.19-.07L17.87,26a2.51,2.51,0,0,0,0-3.53Z"/></svg>