<?xml version="1.0" encoding="iso-8859-1"?><svg id="Layer_1" data-name="Layer 1" xmlns="http://www.w3.org/2000/svg" viewBox="0 0 31.46 45.23"><defs><style>.cls-1{fill:#e5f0f4;}.cls-2{fill:none;stroke:#037098;stroke-miterlimit:10;stroke-width:0.75px;}.cls-3{fill:#037098;}.cls-4{fill:#fff;}.cls-5{fill:#de026d;}</style></defs><rect class="cls-1" x="1.49" y="1.46" width="29.96" height="43.77" rx="1"/><rect class="cls-2" x="0.38" y="0.38" width="29.96" height="43.77" rx="1"/><path class="cls-3" d="M21.16,0h-1.5V1.91H21.1V3.48a.46.46,0,0,1-.16.35.54.54,0,0,1-.32.13H10.09a.49.49,0,0,1-.31-.13.46.46,0,0,1-.16-.35V0h-1V3.48a1.41,1.41,0,0,0,.05.35,1.43,1.43,0,0,0,1.38,1.08H20.62A1.44,1.44,0,0,0,22,3.83a1.41,1.41,0,0,0,0-.35V0Z"/><rect class="cls-3" x="5.31" y="32.83" width="20.1" height="1.59"/><rect class="cls-3" x="5.31" y="35.46" width="10.05" height="1.59"/><rect class="cls-3" x="5.31" y="38.1" width="5.02" height="1.59"/><path class="cls-4" d="M17.19,24.16V21h3.13a.26.26,0,0,0,.26-.26V17.14a.26.26,0,0,0-.26-.26H17.19V13.75a.26.26,0,0,0-.26-.26H13.29a.26.26,0,0,0-.26.26v3.13H9.9a.26.26,0,0,0-.26.26v3.64A.26.26,0,0,0,9.9,21H13v3.12a.26.26,0,0,0,.26.27h3.64A.26.26,0,0,0,17.19,24.16Z"/><path class="cls-5" d="M17.48,24.41V21.29H20.6a.26.26,0,0,0,.26-.26V17.39a.26.26,0,0,0-.26-.26H17.48V14a.26.26,0,0,0-.26-.26H13.57a.26.26,0,0,0-.26.26v3.13H10.19a.25.25,0,0,0-.26.26V21a.26.26,0,0,0,.26.26h3.12v3.12a.26.26,0,0,0,.26.26h3.65A.26.26,0,0,0,17.48,24.41Z"/></svg>