<?xml version="1.0" encoding="iso-8859-1"?><svg id="Layer_1" data-name="Layer 1" xmlns="http://www.w3.org/2000/svg" viewBox="0 0 33.7 38.31"><defs><style>.cls-1{fill:#e5f0f4;}.cls-2{fill:none;stroke:#037098;stroke-miterlimit:10;stroke-width:0.75px;}.cls-3{fill:#037098;}.cls-4{fill:#de026d;}</style></defs><rect class="cls-1" x="7.35" y="2.39" width="25.97" height="9.36" rx="1"/><path class="cls-2" d="M31.49,10.81H7.25a.87.87,0,0,1-.87-.87S9,1.45,9.49,1.45h22a.86.86,0,0,1,.86.86V9.94A.86.86,0,0,1,31.49,10.81Z"/><rect class="cls-3" x="14.18" y="4.46" width="13.9" height="1.38"/><rect class="cls-3" x="14.18" y="6.75" width="5.19" height="1.38"/><circle class="cls-1" cx="6.74" cy="6.82" r="5.75"/><circle class="cls-2" cx="6.13" cy="6.13" r="5.75"/><path class="cls-4" d="M6.66,3.52v5H5.92V4.57L4.87,5v-.7l1.75-.77Z"/><rect class="cls-1" x="0.37" y="15.25" width="25.97" height="9.36" rx="1" transform="translate(26.72 39.87) rotate(-180)"/><path class="cls-2" d="M2.21,23.67H26.45a.86.86,0,0,0,.87-.86s-2.63-8.49-3.11-8.49h-22a.86.86,0,0,0-.87.86v7.63A.86.86,0,0,0,2.21,23.67Z"/><rect class="cls-3" x="5.62" y="17.33" width="13.9" height="1.38" transform="translate(25.14 36.04) rotate(-180)"/><rect class="cls-3" x="14.33" y="19.61" width="5.19" height="1.38" transform="translate(33.85 40.61) rotate(-180)"/><circle class="cls-1" cx="26.96" cy="19.69" r="5.75"/><circle class="cls-2" cx="27.57" cy="19" r="5.75"/><path class="cls-3" d="M29.25,20.64v.7H26.12V21L28,18.77a1.94,1.94,0,0,0,.49-.93.75.75,0,0,0-.84-.76.81.81,0,0,0-.88.74l-.66-.14a1.44,1.44,0,0,1,1.55-1.29,1.42,1.42,0,0,1,1.56,1.45,2.13,2.13,0,0,1-.56,1.26l-1.29,1.54Z"/><rect class="cls-1" x="7.35" y="28.12" width="25.97" height="9.36" rx="1"/><path class="cls-2" d="M31.49,36.54H7.25a.87.87,0,0,1-.87-.86s2.63-8.5,3.11-8.5h22a.86.86,0,0,1,.86.87v7.63A.86.86,0,0,1,31.49,36.54Z"/><rect class="cls-3" x="14.18" y="30.2" width="13.9" height="1.38"/><rect class="cls-3" x="14.18" y="32.48" width="5.19" height="1.38"/><circle class="cls-1" cx="6.74" cy="32.55" r="5.75"/><circle class="cls-2" cx="6.13" cy="31.86" r="5.75"/><path class="cls-3" d="M7.58,32.78a1.54,1.54,0,0,1-1.72,1.5,1.74,1.74,0,0,1-1.59-1l.58-.35a1.16,1.16,0,0,0,1,.66c.59,0,1-.32,1-.8a.9.9,0,0,0-1-.88h-.5V31.3h.43c.51,0,.84-.3.83-.71A.65.65,0,0,0,5.87,30a1.08,1.08,0,0,0-.85.44L4.54,30a1.65,1.65,0,0,1,1.37-.71,1.32,1.32,0,0,1,1.44,1.32,1.09,1.09,0,0,1-.63,1A1.23,1.23,0,0,1,7.58,32.78Z"/></svg>