<?xml version="1.0" encoding="iso-8859-1"?><svg id="Layer_1" data-name="Layer 1" xmlns="http://www.w3.org/2000/svg" viewBox="0 0 52.72 21.23"><defs><style>.cls-1{fill:#fff;}.cls-2{fill:#005bb2;}</style></defs><polygon class="cls-1" points="14.46 13.9 14.41 13.9 10.89 2.05 5.16 2.05 1.49 19.14 5.82 19.14 8.21 7.31 8.26 7.31 11.85 19.14 17.56 19.14 21.2 2.05 16.87 2.05 14.46 13.9"/><polygon class="cls-1" points="22.89 2.05 19.33 19.14 23.93 19.14 25.45 11.82 30.89 11.82 29.37 19.14 33.97 19.14 37.53 2.05 32.94 2.05 31.58 8.59 26.14 8.59 27.5 2.05 22.89 2.05"/><path class="cls-1" d="M37.83,7.49c0,4.82,6.67,3.79,6.67,6.53,0,1.76-2.24,2-3.67,2a9,9,0,0,1-4.23-1l-1.08,3.48a19.1,19.1,0,0,0,5.31.88c4,0,8.39-1.22,8.39-5.95,0-5.19-6.67-4.28-6.67-6.7,0-1.38,1.48-1.64,3.3-1.64a8.63,8.63,0,0,1,3.79.78l1.11-3.41a14.22,14.22,0,0,0-5.27-.75C41.72,1.76,37.83,3.08,37.83,7.49Z"/><path class="cls-2" d="M0,0V21.23H52.72V0ZM31.58,8.59l1.36-6.54h4.59L34,19.14h-4.6l1.52-7.32H25.45l-1.52,7.32h-4.6L22.9,2.05h4.59L26.14,8.59Zm-14,10.55H11.85L8.26,7.31h0L5.82,19.14H1.49L5.16,2.05h5.73L14.41,13.9h.05L16.87,2.05H21.2ZM49.64,5.92a8.63,8.63,0,0,0-3.79-.78c-1.82,0-3.3.26-3.3,1.64,0,2.42,6.67,1.51,6.67,6.7,0,4.73-4.4,5.95-8.39,5.95a19.1,19.1,0,0,1-5.31-.88l1.08-3.48a9,9,0,0,0,4.23,1c1.43,0,3.67-.27,3.67-2,0-2.74-6.67-1.71-6.67-6.53,0-4.41,3.89-5.73,7.65-5.73a14.22,14.22,0,0,1,5.27.75Z"/></svg>