<?xml version="1.0" encoding="iso-8859-1"?><svg id="Layer_1" data-name="Layer 1" xmlns="http://www.w3.org/2000/svg" viewBox="0 0 38.67 37.52"><defs><style>.cls-1{fill:#336f91;}.cls-2{fill:#de026d;}.cls-3{fill:#e5f0f4;}.cls-4,.cls-5{fill:none;stroke:#037098;stroke-miterlimit:10;stroke-width:0.75px;}.cls-5{stroke-linecap:round;}</style></defs><circle class="cls-1" cx="4.19" cy="28.74" r="1.19"/><circle class="cls-1" cx="24.39" cy="36.47" r="1.04"/><circle class="cls-1" cx="33.87" cy="30.12" r="0.97"/><circle class="cls-1" cx="13" cy="35.91" r="1.11"/><circle class="cls-1" cx="1.26" cy="18.77" r="1.26"/><circle class="cls-1" cx="4.83" cy="8.02" r="1.33"/><circle class="cls-1" cx="14.11" cy="1.4" r="1.4"/><circle class="cls-1" cx="25.51" cy="1.59" r="1.47"/><circle class="cls-1" cx="34.58" cy="8.52" r="1.55"/><circle class="cls-2" cx="37.77" cy="19.43" r="0.9"/><rect class="cls-3" x="13.76" y="9.59" width="12.93" height="18.88" rx="1" transform="translate(1.2 39.26) rotate(-90)"/><rect class="cls-4" x="13.06" y="8.88" width="12.93" height="18.88" rx="1" transform="translate(1.2 37.84) rotate(-90)"/><polyline class="cls-5" points="10.36 12.06 19.52 19.07 28.68 12.06"/><line class="cls-5" x1="18.52" y1="18.36" x2="10.36" y2="24.6"/><line class="cls-5" x1="28.68" y1="24.6" x2="20.5" y2="18.34"/></svg>