<svg id="Layer_1" data-name="Layer 1" xmlns="http://www.w3.org/2000/svg" viewBox="0 0 40.43 48.38"><defs><style>.cls-1{fill:#fff;}</style></defs><path class="cls-1" d="M4.75,23.52H0l1-3.89H5.83L8,11.76H3.3l1-3.89H9.09L11.31,0h3.93L13,7.87h5.15L20.4,0h3.93L22.12,7.87H27l-1.09,3.89H21l-2.22,7.87h4.84l-1.08,3.89H17.73l-2.22,7.64H11.62l2.17-7.64H8.64L6.42,31.16H2.58Zm10.13-3.89,2.17-7.87H11.94L9.72,19.63Z"/><path class="cls-1" d="M40.43,1.22V31.16H36V7.6l-6.38,2.53V5.88L40.21,1.22Z"/><path class="cls-1" d="M8.68,40a.85.85,0,0,1,.87-.82.82.82,0,1,1-.87.82Zm.24,2.21h1.27v6.07H8.92Z"/><path class="cls-1" d="M17.78,44.78v3.47H16.51V44.88a1.4,1.4,0,0,0-1.38-1.57A1.64,1.64,0,0,0,13.38,45v3.23H12.1V42.18h1.28v.94a2.26,2.26,0,0,1,2-1.07C16.89,42.05,17.79,43.05,17.78,44.78Z"/><path class="cls-1" d="M23,45.15V39.3h1.33v5.83a1.82,1.82,0,0,0,2,2,1.83,1.83,0,0,0,2-2V39.3h1.34v5.85a3.14,3.14,0,0,1-3.31,3.23A3.13,3.13,0,0,1,23,45.15Z"/><path class="cls-1" d="M36.63,48.25l-3.39-3.67v3.67H31.91v-9h1.33V43l2.82-3.72H37.7l-3.43,4.48,4.16,4.47Z"/></svg>