<svg id="Layer_1" data-name="Layer 1" xmlns="http://www.w3.org/2000/svg" viewBox="0 0 72 72"><defs><style>.cls-1,.cls-2{fill:#fff;}.cls-2{fill-rule:evenodd;}</style></defs><path class="cls-1" d="M36,72A36,36,0,1,1,72,36,36,36,0,0,1,36,72ZM36,2A34,34,0,1,0,70,36,34,34,0,0,0,36,2Z"/><path class="cls-2" d="M55.21,45.43a21.21,21.21,0,0,1-39.11-2.7c-.19-.55-.34-1.11-.48-1.66a5.33,5.33,0,0,1-.74-.5,22.12,22.12,0,0,0,.64,2.35A21.82,21.82,0,0,0,55.75,45.7a21.24,21.24,0,0,0,1.56-4.12h-.62a22.3,22.3,0,0,1-1.48,3.85M17.13,26.33A21.21,21.21,0,0,1,56.24,29c.18.54.26.79.4,1.34a1.32,1.32,0,0,1,.73.42,19.78,19.78,0,0,0-.56-2,21.83,21.83,0,0,0-42.19,3.21,4.34,4.34,0,0,1,.72-.56,21.21,21.21,0,0,1,1.79-5.16M32.9,65.52a2.6,2.6,0,0,1-1,0,1.73,1.73,0,0,1-1.52-2.13,1.8,1.8,0,0,1,2.19-1.58,2.49,2.49,0,0,1,.85.3l-.18.36a1.29,1.29,0,0,0-.73-.24,1.35,1.35,0,0,0-1.64,1.28A1.39,1.39,0,0,0,32,65.21a1.78,1.78,0,0,0,.8,0Zm1-1a.88.88,0,0,0,.85,1,1.22,1.22,0,0,0,.73-.12l.06.36a3,3,0,0,1-.91.12,1.24,1.24,0,0,1-1.22-1.4,1.28,1.28,0,0,1,1.34-1.34,1.2,1.2,0,0,1,1,1.34v.25Zm1.4-.3c0-.31-.06-.79-.61-.79a.84.84,0,0,0-.79.73Zm1-.18a3.87,3.87,0,0,0-.06-.86h.43v.55a.84.84,0,0,1,.73-.61h.12v.43h-.18c-.37,0-.55.24-.61.61v1.64h-.49Zm2.32-1.71.06.73.67-.06v.37l-.67.06.12,1.4c0,.3.12.48.43.48a2.6,2.6,0,0,0,.3-.06l.06.37c-.06.06-.24.06-.42.12a.74.74,0,0,1-.55-.18,1,1,0,0,1-.25-.67l-.12-1.46-.42.06v-.37l.42-.06-.06-.61.43-.12Zm1.52-.18c0,.18-.06.3-.24.3s-.31-.06-.31-.24a.33.33,0,0,1,.24-.36A.29.29,0,0,1,40.08,62.11ZM40,65.52l-.37-2.62.49-.06.37,2.62Zm1.4-.18-.49-2.26-.36.06-.06-.36.36-.06V62.6a1.13,1.13,0,0,1,.91-1.4.81.81,0,0,1,.67.06l-.06.36a1.7,1.7,0,0,0-.61-.06c-.48.12-.54.49-.48.91v.13l1.52-.31.55,2.62-.49.12-.49-2.25-1,.24.48,2.25ZM46,64.06a2.1,2.1,0,0,1-.67.36,1.22,1.22,0,0,1-1.64-.91,1.35,1.35,0,0,1,.91-1.77,1.38,1.38,0,0,1,.67-.06v.37a.92.92,0,0,0-.54.06.93.93,0,0,0-.61,1.22.86.86,0,0,0,1.15.67,1.16,1.16,0,0,0,.55-.31Zm2-.73-.12-.25a.92.92,0,0,1-.61.67.75.75,0,0,1-1-.42c-.25-.61.12-1.16,1.09-1.52v-.07a.58.58,0,0,0-.79-.36,1.34,1.34,0,0,0-.55.43l-.24-.25a1.45,1.45,0,0,1,.73-.55.94.94,0,0,1,1.34.61l.36.92a1.26,1.26,0,0,0,.31.54Zm-.55-1.22c-.48.18-1,.49-.79,1a.41.41,0,0,0,.61.25.71.71,0,0,0,.43-.67.25.25,0,0,0-.06-.19Zm.67-2.56.37.67.61-.3.18.3-.61.31.67,1.28c.12.3.31.42.55.3a.83.83,0,0,0,.24-.18l.19.3a1.07,1.07,0,0,1-.37.24.58.58,0,0,1-.55.07.93.93,0,0,1-.48-.55l-.67-1.28-.37.18-.18-.3.36-.18-.3-.55Zm1.34-.73a.33.33,0,0,1-.12.43.4.4,0,0,1-.42-.12A.31.31,0,0,1,49,58.7.26.26,0,0,1,49.45,58.82Zm1.22,3.23-1.28-2.31.43-.25,1.28,2.32Zm2.44-3.11a1.3,1.3,0,1,1-1.83-.42A1.27,1.27,0,0,1,53.11,58.94ZM51.34,60.1a.91.91,0,0,0,1.22.43.93.93,0,0,0,.12-1.28.91.91,0,0,0-1.22-.43C51,59.13,51.1,59.67,51.34,60.1Zm1.83-2c-.19-.18-.31-.36-.49-.55l.3-.24.31.31a.86.86,0,0,1,.36-.92,1,1,0,0,1,1.46.25l1,1.21-.37.31-1-1.16a.64.64,0,0,0-1-.18.66.66,0,0,0-.19.79c0,.06.06.12.12.18l1,1.22-.37.3Zm3-2.62a3.35,3.35,0,0,0-.55-.42l.25-.31.36.25a.89.89,0,0,1,.18-1,.79.79,0,0,1,.92-.24,1.19,1.19,0,0,1-.06-.43.73.73,0,0,1,.24-.54c.24-.25.73-.49,1.46.06l1.22,1-.31.37-1.15-1c-.37-.3-.73-.36-1-.06a.65.65,0,0,0-.06.73l.18.19,1.28,1-.3.37-1.22-1a.67.67,0,0,0-.91-.06.73.73,0,0,0,0,.79l.18.18,1.22,1-.31.36Zm5.23-3.71-.3-.12a.87.87,0,0,1-.12.91.76.76,0,0,1-1.1.25c-.55-.37-.55-1,.06-1.89h-.06a.54.54,0,0,0-.85.18,1.4,1.4,0,0,0-.18.67l-.31-.06a1.64,1.64,0,0,1,.31-.85.93.93,0,0,1,1.46-.24l.85.54a2.55,2.55,0,0,0,.55.31Zm-1.15-.67c-.31.43-.55,1-.12,1.28a.4.4,0,0,0,.6-.12.7.7,0,0,0,0-.79l-.12-.12Zm.18-1.22c-.3-.12-.49-.24-.73-.36l.18-.37.49.25a.89.89,0,0,1-.18-.92c0-.06.06-.06.06-.12l.42.25-.12.12a.63.63,0,0,0,.25.85c.06.06.12.06.18.12l1.22.67-.25.43Zm1.4-1.82-.18-.37-.49-1.09.24-.55.55,1.4L63.88,47l-.24.55-1.53.31.13.36.91.43-.18.42L59.44,47.5l.18-.43Z"/><path class="cls-2" d="M19.14,31.55a4.26,4.26,0,0,1,4.44,4.51,4.2,4.2,0,0,1-4.44,4.38,4.15,4.15,0,0,1-4.38-4.38A4.22,4.22,0,0,1,19.14,31.55Zm0,7.13c1.71,0,2.13-1.53,2.13-2.93a2.21,2.21,0,0,0-2.13-2.49A2.25,2.25,0,0,0,17,35.75C17,37.15,17.5,38.68,19.14,38.68Z"/><path class="cls-2" d="M24.86,33.38H23.22V31.8h1.64V30.64a2.58,2.58,0,0,1,2.68-2.86,6.3,6.3,0,0,1,1.58.18l-.18,1.83a1.67,1.67,0,0,0-1-.31c-.73,0-1,.67-1,1.28v1h2v1.58H27V40.2H24.8V33.38ZM37,31.74v7.61c0,2.31-.92,4.44-4.45,4.44a7.64,7.64,0,0,1-2.92-.55l.18-1.89a6.16,6.16,0,0,0,2.44.73c2.43,0,2.55-1.82,2.55-3.28h-.06a3,3,0,0,1-2.61,1.34c-2.5,0-3.47-2-3.47-4.26,0-2,1-4.39,3.59-4.39a2.87,2.87,0,0,1,2.62,1.34h.06V31.68H37Zm-2.2,4.14c0-1.47-.54-2.62-1.82-2.62-1.52,0-1.95,1.4-1.95,2.68s.61,2.55,1.89,2.55S34.78,37.28,34.78,35.88Zm10,3.83a5.89,5.89,0,0,1-2.92.67c-2.8,0-4.39-1.58-4.39-4.38,0-2.44,1.28-4.45,3.9-4.45,3.1,0,4,2.13,4,5.12H39.53A2.24,2.24,0,0,0,42,38.8a5.32,5.32,0,0,0,2.8-.85Zm-1.46-4.56c-.06-1.1-.55-2-1.77-2s-1.83.85-1.95,2Zm2.55-3.41h2.07v1.15H48a3,3,0,0,1,2.5-1.4A2.48,2.48,0,0,1,53,33a2.8,2.8,0,0,1,2.62-1.46c2.07,0,2.68,1.4,2.68,3.29v5.36H56.09V35.08c0-.79,0-1.88-1.28-1.88-1.46,0-1.64,1.76-1.64,2.86v4.08H51V35.08c0-.79,0-1.88-1.28-1.88-1.46,0-1.65,1.76-1.65,2.86v4.08H45.86Z"/><path class="cls-2" d="M11,30.47a2.69,2.69,0,0,1,.06,1.46A2.5,2.5,0,0,1,8,34.18,2.77,2.77,0,0,1,5.5,31a2.07,2.07,0,0,1,.43-1.21l.54.24a2.31,2.31,0,0,0-.36,1,2.08,2.08,0,0,0,2,2.44,2,2,0,0,0,2.43-1.77,3.51,3.51,0,0,0-.06-1.15Zm-.61-4.27a2,2,0,0,1,1.46,2.44,1.87,1.87,0,0,1-2.5,1.22,1.91,1.91,0,0,1-1.46-2.44A1.87,1.87,0,0,1,10.43,26.2Zm-.85,2.93c.85.24,1.58,0,1.76-.67a1.33,1.33,0,0,0-1.09-1.59c-.61-.18-1.52-.12-1.77.67A1.3,1.3,0,0,0,9.58,29.13ZM10,25.05c-.36-.18-.67-.31-1-.43l.3-.55.61.25a1.4,1.4,0,0,1-.06-1.46A1.43,1.43,0,0,1,12,22.37l2.13,1-.3.61-2-1c-.55-.3-1.16-.3-1.46.3a1,1,0,0,0,.24,1.16,1.21,1.21,0,0,0,.31.18l2.13,1-.31.61Zm4.51-2.38-2.8-1.94-.31.42-.42-.3.3-.43-.18-.12a1.58,1.58,0,0,1-.43-2.37,2,2,0,0,1,.79-.67l.31.48a1.36,1.36,0,0,0-.67.55c-.43.61-.12,1.1.36,1.46l.19.12L13,18.05l3.22,2.25-.42.55-2.8-2-.92,1.28,2.8,1.95Zm.42-9.31,3.41,3.23c.25.24.55.48.73.67l-.42.42-.49-.42a1.39,1.39,0,0,1-.37,1.46,1.84,1.84,0,0,1-2.61-.18,1.79,1.79,0,0,1-.31-2.68,1.44,1.44,0,0,1,1.28-.43l-1.7-1.58Zm2,2.86c-.06-.06-.18-.12-.24-.18a1,1,0,0,0-1.34.18c-.55.55-.37,1.28.24,1.89a1.3,1.3,0,0,0,1.89.18A1,1,0,0,0,17.61,17c-.06-.06-.12-.18-.18-.24Zm1.95-1.09a1.33,1.33,0,0,0,1.95.24,2.12,2.12,0,0,0,.73-.79l.42.3a3.07,3.07,0,0,1-.91,1,1.85,1.85,0,0,1-2.74-.43,1.82,1.82,0,0,1,.19-2.74,1.74,1.74,0,0,1,2.43.49.83.83,0,0,0,.18.24Zm1.4-1.65a1,1,0,0,0-1.52-.3,1.08,1.08,0,0,0-.18,1.52Zm1-1.28c-.19-.36-.37-.6-.55-.91l.55-.3.36.55a1.41,1.41,0,0,1,.79-1.22,1.49,1.49,0,0,1,2.07.79l1.16,2-.61.36L24,11.54A1,1,0,0,0,22.6,11a.93.93,0,0,0-.48,1.09.67.67,0,0,0,.12.31l1.15,2-.6.36Zm7.73-.42a3.25,3.25,0,0,1-1,.61,1.87,1.87,0,0,1-2.55-1.16A1.93,1.93,0,0,1,26.8,8.61a2.29,2.29,0,0,1,1-.12L27.9,9a1.58,1.58,0,0,0-.85.12A1.3,1.3,0,0,0,26.26,11a1.4,1.4,0,0,0,1.82.91,1.82,1.82,0,0,0,.79-.49ZM29.48,10a1.32,1.32,0,0,0,1.65,1,2.79,2.79,0,0,0,1-.43l.24.49a3.06,3.06,0,0,1-1.21.49,1.89,1.89,0,0,1-2.38-1.47A1.82,1.82,0,0,1,30.15,7.7a1.67,1.67,0,0,1,2,1.4.65.65,0,0,1,.06.3ZM31.43,9a1.09,1.09,0,0,0-1.28-.91c-.73.12-.85.85-.85,1.34Zm7.12,1.7a3.53,3.53,0,0,1-1.46.25,2.59,2.59,0,0,1-2.8-2.68,2.7,2.7,0,0,1,2.86-2.8,2.87,2.87,0,0,1,1.34.24l-.18.55a3,3,0,0,0-1.16-.24A1.94,1.94,0,0,0,35,8.25a2,2,0,0,0,2.19,2.13,2.2,2.2,0,0,0,1.16-.24Zm4.26-1.09a2,2,0,1,1-3.89-.55,1.86,1.86,0,0,1,2.25-1.7A1.91,1.91,0,0,1,42.81,9.65Zm-3.16-.43a1.36,1.36,0,0,0,1,1.65c.67.12,1.28-.43,1.4-1.28a1.33,1.33,0,0,0-1-1.65C40.19,7.76,39.77,8.49,39.65,9.22Zm8.4-1.7L46.59,11.9a6.55,6.55,0,0,0-.31.91l-.61-.18.19-.61a1.63,1.63,0,0,1-1.53.31,1.78,1.78,0,0,1-1-2.38,1.87,1.87,0,0,1,2.37-1.4,1.35,1.35,0,0,1,1,.92l.73-2.13Zm-1.77,2.92a2.6,2.6,0,0,0,.06-.3A1.08,1.08,0,0,0,45.61,9c-.73-.24-1.34.24-1.58,1a1.24,1.24,0,0,0,.67,1.71A1.08,1.08,0,0,0,46,11.35c.06-.06.06-.18.12-.24Zm1.95,1.28a1.17,1.17,0,0,0,.61,1.76,2.25,2.25,0,0,0,1.09.31l-.12.48a3.53,3.53,0,0,1-1.28-.36,1.8,1.8,0,0,1-.85-2.62,1.88,1.88,0,0,1,2.62-1A1.62,1.62,0,0,1,51,12.63a1.7,1.7,0,0,1-.18.31Zm2.13.55A1,1,0,0,0,50,10.8a1.22,1.22,0,0,0-1.52.49Z"/></svg>