<?xml version="1.0" encoding="iso-8859-1"?><svg id="Layer_1" data-name="Layer 1" xmlns="http://www.w3.org/2000/svg" viewBox="0 0 71.71 42.91"><defs><style>.cls-1,.cls-2{fill:none;stroke-miterlimit:10;}.cls-1{stroke:#d5d5d5;stroke-width:0.5px;}.cls-2{stroke:#037098;stroke-width:0.75px;}.cls-3,.cls-4{fill:#037098;}.cls-3{opacity:0.1;}.cls-5{fill:#de026d;}.cls-6{fill:#d5d5d5;opacity:0.3;}</style></defs><rect class="cls-1" x="0.25" y="0.25" width="71.21" height="42.41" rx="1"/><rect class="cls-2" x="3.29" y="3.62" width="24.42" height="35.68" rx="1"/><rect class="cls-3" x="4.2" y="4.5" width="24.42" height="35.68" rx="1"/><rect class="cls-4" x="5.91" y="10.76" width="9.5" height="1.91"/><rect class="cls-4" x="5.91" y="13.94" width="9.5" height="1.91"/><rect class="cls-4" x="5.91" y="17.12" width="9.5" height="1.91"/><rect class="cls-4" x="5.91" y="20.3" width="18.89" height="1.91"/><rect class="cls-4" x="5.91" y="23.48" width="18.89" height="1.91"/><rect class="cls-4" x="5.91" y="29.83" width="18.89" height="1.91"/><rect class="cls-4" x="5.91" y="33.01" width="10.73" height="1.91"/><rect class="cls-5" x="16.53" y="10.76" width="8.27" height="8.27"/><rect class="cls-4" x="5.91" y="26.65" width="18.89" height="1.91"/><rect class="cls-6" x="33.82" y="12.84" width="31.7" height="4.72" rx="0.75"/><rect class="cls-6" x="33.82" y="19.1" width="31.7" height="4.72" rx="0.75"/><rect class="cls-6" x="33.82" y="25.35" width="31.7" height="4.72" rx="0.75"/></svg>