<?xml version="1.0" encoding="iso-8859-1"?><svg id="Layer_1" data-name="Layer 1" xmlns="http://www.w3.org/2000/svg" viewBox="0 0 86.04 86.04"><defs><style>.cls-1{fill:#fff;}.cls-2{fill:#336f93;}</style></defs><circle class="cls-1" cx="43.02" cy="43.02" r="43.02"/><path d="M27.79,21.28,25.14,25v3.16h-1V25l-2.63-3.73H22.7L24.62,24l1.95-2.76Z"/><path d="M29.27,24.74a3.49,3.49,0,1,1,3.48,3.53A3.48,3.48,0,0,1,29.27,24.74Zm5.95,0a2.46,2.46,0,1,0-2.47,2.57A2.5,2.5,0,0,0,35.22,24.74Z"/><path d="M39,25.78v-4.5h1v4.49a1.52,1.52,0,0,0,3,0V21.28h1v4.5a2.55,2.55,0,0,1-5.09,0Z"/><path d="M49.05,25.6h-.79v2.57h-1V21.28h2.63A2,2,0,0,1,52,23.46a2,2,0,0,1-1.77,2.12L52,28.17H50.81Zm-.79-.9h1.35c1,0,1.34-.51,1.34-1.24a1.12,1.12,0,0,0-1.1-1.24H48.26Z"/><path class="cls-2" d="M27.64,33.28v6.89H26.25v-2.8H23.68v2.8H22.29V33.28h1.39v2.84h2.57V33.28Z"/><path class="cls-2" d="M35.13,38.94v1.23H30.72V33.28H35v1.23H32.11v1.64h2.57V37.4H32.11v1.54Z"/><path class="cls-2" d="M41.58,38.52H39l-.55,1.65H37l2.57-6.89H41l2.56,6.89H42.14Zm-.42-1.21-.88-2.59-.87,2.59Z"/><path class="cls-2" d="M45.79,33.28h1.39v5.66h2.61v1.23h-4Z"/><path class="cls-2" d="M56,34.51h-1.9v5.66H52.7V34.51H50.81V33.28H56Z"/><path class="cls-2" d="M63.78,33.28v6.89H62.39v-2.8H59.83v2.8H58.44V33.28h1.39v2.84h2.56V33.28Z"/><path d="M27.79,45.29,25.14,49v3.15h-1V49l-2.63-3.73H22.7l1.92,2.76,1.95-2.76Z"/><path d="M29.27,48.74a3.49,3.49,0,1,1,3.48,3.53A3.48,3.48,0,0,1,29.27,48.74Zm5.95,0a2.46,2.46,0,1,0-2.47,2.57A2.5,2.5,0,0,0,35.22,48.74Z"/><path d="M39,49.78V45.29h1v4.49a1.52,1.52,0,0,0,3,0V45.29h1v4.49a2.55,2.55,0,0,1-5.09,0Z"/><path d="M49.05,49.61h-.79v2.56h-1V45.29h2.63A2,2,0,0,1,52,47.47a2,2,0,0,1-1.77,2.11L52,52.17H50.81Zm-.79-.91h1.35c1,0,1.34-.5,1.34-1.23a1.12,1.12,0,0,0-1.1-1.24H48.26Z"/><path class="cls-2" d="M21.87,60.73a3.5,3.5,0,0,1,3.5-3.52,3.42,3.42,0,0,1,2.81,1.43l-1.06.77a2,2,0,0,0-1.7-.89,2.22,2.22,0,0,0,0,4.44,2,2,0,0,0,1.71-.9l1.06.78a3.45,3.45,0,0,1-2.81,1.43A3.51,3.51,0,0,1,21.87,60.73Z"/><path class="cls-2" d="M36,57.29v6.89H34.65v-2.8H32.08v2.8H30.69V57.29h1.39v2.84h2.57V57.29Z"/><path class="cls-2" d="M38.7,60.74a3.51,3.51,0,1,1,3.5,3.53A3.5,3.5,0,0,1,38.7,60.74Zm5.61,0A2.11,2.11,0,1,0,42.2,63,2.13,2.13,0,0,0,44.31,60.74Z"/><path class="cls-2" d="M48.37,57.29h1.39v6.89H48.37Z"/><path class="cls-2" d="M52.43,60.73a3.49,3.49,0,0,1,3.49-3.52,3.42,3.42,0,0,1,2.81,1.43l-1.06.77a2,2,0,0,0-1.7-.89A2.22,2.22,0,0,0,56,63a2,2,0,0,0,1.71-.9l1.06.78a3.45,3.45,0,0,1-2.81,1.43A3.5,3.5,0,0,1,52.43,60.73Z"/><path class="cls-2" d="M65.65,63v1.23h-4.4V57.29h4.31v1.23H62.64v1.64H65.2v1.25H62.64V63Z"/></svg>